<svg width="33" height="32" viewBox="0 0 33 32" fill="none" xmlns="http://www.w3.org/2000/svg">
<path fill-rule="evenodd" clip-rule="evenodd" d="M4.83274 4.68629C11.2764 -1.5621 21.7236 -1.5621 28.1673 4.68629C34.6109 10.9347 34.6109 21.0653 28.1673 27.3137C21.7236 33.5621 11.2764 33.5621 4.83274 27.3137C-1.61091 21.0653 -1.61091 10.9347 4.83274 4.68629ZM6.6277 6.42686C12.08 1.13976 20.92 1.13976 26.3723 6.42686C28.7748 8.75656 30.1187 11.7241 30.4039 14.7673H14.2115L20.1312 9.02708C20.6276 8.54571 20.6276 7.76524 20.1312 7.28386C19.6347 6.80248 18.8299 6.80248 18.3335 7.28386L10.2438 15.1284C9.74739 15.6097 9.74739 16.3902 10.2438 16.8716L18.3335 24.7161C18.8299 25.1975 19.6347 25.1975 20.1312 24.7161C20.6276 24.2347 20.6276 23.4543 20.1312 22.9729L14.2115 17.2326H30.4039C30.1187 20.2759 28.7748 23.2434 26.3723 25.5731C20.92 30.8602 12.08 30.8602 6.6277 25.5731C1.17538 20.286 1.17538 11.714 6.6277 6.42686Z" fill="#221517"/>
<path d="M26.3723 6.42686C20.92 1.13976 12.08 1.13976 6.6277 6.42686C1.17538 11.714 1.17538 20.286 6.6277 25.5731C12.08 30.8602 20.92 30.8602 26.3723 25.5731C28.7748 23.2434 30.1187 20.2759 30.4039 17.2326H14.2115L20.1312 22.9729C20.6276 23.4543 20.6276 24.2347 20.1312 24.7161C19.6347 25.1975 18.8299 25.1975 18.3335 24.7161L10.2438 16.8716C9.74739 16.3902 9.74739 15.6097 10.2438 15.1284L18.3335 7.28386C18.8299 6.80248 19.6347 6.80248 20.1312 7.28386C20.6276 7.76524 20.6276 8.54571 20.1312 9.02708L14.2115 14.7673H30.4039C30.1187 11.7241 28.7748 8.75656 26.3723 6.42686Z" fill="#EFEDEB"/>
</svg>
