<svg width="215" height="32" viewBox="0 0 215 32" fill="none" xmlns="http://www.w3.org/2000/svg">
<path d="M26.5251 31H18.6051L15.0451 23.24H5.48507L2.12507 31H0.445068L12.9251 2.72002H13.4851L26.5251 31ZM10.1251 12.52L6.12507 21.76H14.3651L10.1251 12.52Z" fill="#EFEDEB"/>
<path d="M42.2104 10.6C46.4504 10.6 48.9304 13.4 48.9304 17.68V31H42.0504V16.88C42.0504 14.52 41.2904 13.28 39.6104 13.28C36.9704 13.28 35.5704 16.56 35.5704 21V31H28.6904V11H35.5704V16C36.4504 12.72 38.4504 10.6 42.2104 10.6Z" fill="#EFEDEB"/>
<path d="M62.5063 10.6C67.7463 10.6 72.1463 13.72 71.9063 21.32H59.2663C59.3863 27.24 61.1463 29.44 64.7063 29.44C67.7463 29.44 69.9863 27.76 70.3863 24H71.7863C71.3463 29.12 67.7863 31.4 63.0663 31.4C56.5063 31.4 52.0263 27.24 52.0263 20.96C52.0263 14.8 56.4663 10.6 62.5063 10.6ZM62.5863 11.8C60.5463 11.8 59.3863 14.32 59.2663 19.84H65.3463C65.4263 13.96 64.5863 11.8 62.5863 11.8Z" fill="#EFEDEB"/>
<path d="M87.5451 24H88.9451C88.9451 29.24 85.9451 31.36 82.4251 31.36C78.8651 31.36 75.8251 29.64 75.8251 24.8V12.36H73.1051V11H75.8251L81.4651 5.80001H82.6651V11H88.5051V12.36H82.6651V26.44C82.6651 28.2 83.1851 28.96 84.5051 28.96C85.8251 28.96 87.5051 27.88 87.5451 24Z" fill="#EFEDEB"/>
<path d="M104.069 24H105.469C105.469 29.24 102.469 31.36 98.9485 31.36C95.3885 31.36 92.3485 29.64 92.3485 24.8V12.36H89.6285V11H92.3485L97.9885 5.80001H99.1885V11H105.029V12.36H99.1885V26.44C99.1885 28.2 99.7085 28.96 101.029 28.96C102.349 28.96 104.029 27.88 104.069 24Z" fill="#EFEDEB"/>
<path d="M116.999 10.6C122.239 10.6 126.639 13.72 126.399 21.32H113.759C113.879 27.24 115.639 29.44 119.199 29.44C122.239 29.44 124.479 27.76 124.879 24H126.279C125.839 29.12 122.279 31.4 117.559 31.4C110.999 31.4 106.519 27.24 106.519 20.96C106.519 14.8 110.959 10.6 116.999 10.6ZM117.079 11.8C115.039 11.8 113.879 14.32 113.759 19.84H119.839C119.919 13.96 119.079 11.8 117.079 11.8Z" fill="#EFEDEB"/>
<path d="M145.392 3.00002V29.52H156.032V31H138.112V3.00002H145.392Z" fill="#EFEDEB"/>
<path d="M169.976 21V11H176.776V31.2H175.576L170.576 24.84C169.776 28.8 167.576 31.4 163.336 31.4C159.096 31.4 156.656 28.6 156.656 24.32V11H163.496V25.12C163.496 27.48 164.256 28.72 165.936 28.72C168.616 28.72 169.976 25.48 169.976 21Z" fill="#EFEDEB"/>
<path d="M184.473 0.640015C186.793 0.640015 188.273 2.28001 188.273 4.32001C188.273 6.36001 186.793 8.04002 184.473 8.04002C182.193 8.04002 180.753 6.36001 180.753 4.32001C180.753 2.28001 182.193 0.640015 184.473 0.640015ZM187.953 31H181.073V11H187.953V31Z" fill="#EFEDEB"/>
<path d="M212.206 11L206.366 16.24L214.406 31H206.526L201.126 20.96H199.086V31H192.206V3.00002H199.086V19.6H200.686L210.166 11H212.206Z" fill="#EFEDEB"/>
</svg>
