<svg width="40" height="40" viewBox="0 0 40 40" fill="none" xmlns="http://www.w3.org/2000/svg">
<g clip-path="url(#clip0_337_1368)">
<path d="M22.7776 36.9478V30.2737C22.7776 29.3681 23.5117 28.6346 24.4167 28.6346C27.6461 28.6346 29.4029 25.3226 29.6468 18.7845H24.4167C23.5118 18.7845 22.7776 18.05 22.7776 17.1455V3.05269C22.7776 2.14745 23.5117 1.41397 24.4167 1.41397H38.3608C39.2656 1.41397 40 2.14825 40 3.05269V17.1456C40 20.2794 39.6836 23.1552 39.0626 25.6951C38.4245 28.2987 37.4452 30.575 36.1523 32.4614C34.8226 34.3998 33.1579 35.921 31.2072 36.9804C29.2418 38.0465 26.9572 38.5876 24.416 38.5876C23.5118 38.5869 22.7776 37.8527 22.7776 36.9478ZM1.63872 28.634C0.733819 28.634 0 29.3681 0 30.2724V36.9479C0 37.8527 0.733819 38.5863 1.63872 38.5863C4.17866 38.5863 6.46446 38.0451 8.4286 36.9791C10.3803 35.9198 12.0448 34.4 13.3743 32.4601C14.668 30.5738 15.6473 28.2974 16.2853 25.6924C16.9067 23.1526 17.2224 20.2767 17.2224 17.1442V3.05131C17.2224 2.14607 16.4879 1.4126 15.5833 1.4126H1.63872C0.733819 1.4126 0 2.14676 0 3.05131V17.1442C0 18.0493 0.733819 18.7833 1.63872 18.7833H6.79539C6.55452 25.3219 4.82299 28.634 1.63872 28.634Z" fill="#221517"/>
</g>
<defs>
<clipPath id="clip0_337_1368">
<rect width="40" height="40" fill="white"/>
</clipPath>
</defs>
</svg>
