<svg width="26" height="26" viewBox="0 0 26 26" fill="none" xmlns="http://www.w3.org/2000/svg">
<mask id="path-1-inside-1_356_60" fill="white">
<path d="M22.1924 22.1924C17.1156 27.2692 8.88443 27.2692 3.80761 22.1924C-1.2692 17.1156 -1.2692 8.88443 3.80761 3.80761C8.88443 -1.2692 17.1156 -1.2692 22.1924 3.80761C27.2692 8.88443 27.2692 17.1156 22.1924 22.1924Z"/>
</mask>
<path d="M17.9497 13.7071C18.3403 13.3166 18.3403 12.6834 17.9497 12.2929L11.5858 5.92893C11.1953 5.53841 10.5621 5.53841 10.1716 5.92893C9.78105 6.31946 9.78105 6.95262 10.1716 7.34315L15.8284 13L10.1716 18.6569C9.78105 19.0474 9.78105 19.6805 10.1716 20.0711C10.5621 20.4616 11.1953 20.4616 11.5858 20.0711L17.9497 13.7071ZM1.68629 14H17.2426V12H1.68629V14ZM20.7782 20.7782C16.4824 25.0739 9.51759 25.0739 5.22183 20.7782L2.3934 23.6066C8.25126 29.4645 17.7487 29.4645 23.6066 23.6066L20.7782 20.7782ZM5.22183 20.7782C0.926058 16.4824 0.926058 9.51759 5.22183 5.22183L2.3934 2.3934C-3.46447 8.25126 -3.46447 17.7487 2.3934 23.6066L5.22183 20.7782ZM5.22183 5.22183C9.51759 0.926058 16.4824 0.926058 20.7782 5.22183L23.6066 2.3934C17.7487 -3.46447 8.25126 -3.46447 2.3934 2.3934L5.22183 5.22183ZM20.7782 5.22183C25.0739 9.51759 25.0739 16.4824 20.7782 20.7782L23.6066 23.6066C29.4645 17.7487 29.4645 8.25126 23.6066 2.3934L20.7782 5.22183Z" fill="#221517" mask="url(#path-1-inside-1_356_60)"/>
</svg>
