<svg width="1320" height="655" viewBox="0 0 1320 655" fill="none" xmlns="http://www.w3.org/2000/svg">
<path d="M2.368 110V87.6H16V89.808H5.056V97.68H14.368V99.856H5.056V110H2.368ZM20.9338 90.608C20.4004 90.608 19.9524 90.4373 19.5898 90.096C19.2484 89.7333 19.0778 89.2853 19.0778 88.752C19.0778 88.24 19.2484 87.8133 19.5898 87.472C19.9524 87.1307 20.4004 86.96 20.9338 86.96C21.4458 86.96 21.8831 87.1307 22.2458 87.472C22.6084 87.8133 22.7898 88.24 22.7898 88.752C22.7898 89.2853 22.6084 89.7333 22.2458 90.096C21.8831 90.4373 21.4458 90.608 20.9338 90.608ZM19.5898 110V94.128H22.2778V110H19.5898ZM33.23 105.008C32.334 105.008 31.5127 104.891 30.766 104.656L29.166 106.16C29.4007 106.331 29.6887 106.48 30.03 106.608C30.3927 106.715 30.9047 106.821 31.566 106.928C32.2273 107.013 33.1553 107.109 34.35 107.216C36.4833 107.365 38.0087 107.856 38.926 108.688C39.8433 109.52 40.302 110.608 40.302 111.952C40.302 112.869 40.046 113.744 39.534 114.576C39.0433 115.408 38.2753 116.091 37.23 116.624C36.206 117.157 34.8833 117.424 33.262 117.424C31.8327 117.424 30.5633 117.232 29.454 116.848C28.3447 116.485 27.4807 115.92 26.862 115.152C26.2433 114.405 25.934 113.456 25.934 112.304C25.934 111.707 26.094 111.056 26.414 110.352C26.734 109.669 27.3313 109.019 28.206 108.4C27.7367 108.208 27.3313 108.005 26.99 107.792C26.67 107.557 26.3713 107.301 26.094 107.024V106.288L28.814 103.6C27.5553 102.533 26.926 101.125 26.926 99.376C26.926 98.3307 27.1713 97.3813 27.662 96.528C28.1527 95.6747 28.8673 95.0027 29.806 94.512C30.7447 94 31.886 93.744 33.23 93.744C34.1473 93.744 34.9793 93.872 35.726 94.128H41.582V96.144L38.606 96.272C39.2247 97.168 39.534 98.2027 39.534 99.376C39.534 100.421 39.278 101.371 38.766 102.224C38.2753 103.077 37.5607 103.76 36.622 104.272C35.7047 104.763 34.574 105.008 33.23 105.008ZM33.23 102.8C34.3607 102.8 35.2567 102.512 35.918 101.936C36.6007 101.339 36.942 100.485 36.942 99.376C36.942 98.288 36.6007 97.456 35.918 96.88C35.2567 96.2827 34.3607 95.984 33.23 95.984C32.078 95.984 31.1607 96.2827 30.478 96.88C29.8167 97.456 29.486 98.288 29.486 99.376C29.486 100.485 29.8167 101.339 30.478 101.936C31.1607 102.512 32.078 102.8 33.23 102.8ZM28.558 112.048C28.558 113.115 29.006 113.904 29.902 114.416C30.798 114.949 31.918 115.216 33.262 115.216C34.5847 115.216 35.6407 114.928 36.43 114.352C37.2407 113.776 37.646 113.008 37.646 112.048C37.646 111.365 37.3687 110.768 36.814 110.256C36.2593 109.765 35.2353 109.477 33.742 109.392C32.5687 109.307 31.5553 109.2 30.702 109.072C29.8273 109.541 29.2513 110.043 28.974 110.576C28.6967 111.131 28.558 111.621 28.558 112.048ZM44.6143 110V94.128H47.0463L47.2383 96.432C47.7503 95.5787 48.4329 94.9173 49.2863 94.448C50.1396 93.9787 51.0996 93.744 52.1663 93.744C53.4249 93.744 54.5023 94 55.3983 94.512C56.3156 95.024 57.0196 95.8027 57.5103 96.848C58.0649 95.888 58.8223 95.1307 59.7823 94.576C60.7636 94.0213 61.8196 93.744 62.9503 93.744C64.8489 93.744 66.3636 94.32 67.4943 95.472C68.6249 96.6027 69.1903 98.352 69.1903 100.72V110H66.5343V101.008C66.5343 99.3653 66.2036 98.128 65.5423 97.296C64.8809 96.464 63.9316 96.048 62.6943 96.048C61.4143 96.048 60.3476 96.5493 59.4943 97.552C58.6623 98.5333 58.2463 99.9413 58.2463 101.776V110H55.5583V101.008C55.5583 99.3653 55.2276 98.128 54.5663 97.296C53.9049 96.464 52.9556 96.048 51.7183 96.048C50.4596 96.048 49.4036 96.5493 48.5503 97.552C47.7183 98.5333 47.3023 99.9413 47.3023 101.776V110H44.6143ZM78.5193 110.384C77.1966 110.384 76.0979 110.16 75.2233 109.712C74.3486 109.264 73.6979 108.667 73.2713 107.92C72.8446 107.173 72.6313 106.363 72.6313 105.488C72.6313 103.867 73.2499 102.619 74.4873 101.744C75.7246 100.869 77.4099 100.432 79.5433 100.432H83.8313V100.24C83.8313 98.8533 83.4686 97.808 82.7433 97.104C82.0179 96.3787 81.0473 96.016 79.8313 96.016C78.7859 96.016 77.8793 96.2827 77.1113 96.816C76.3646 97.328 75.8953 98.0853 75.7033 99.088H72.9513C73.0579 97.936 73.4419 96.9653 74.1033 96.176C74.7859 95.3867 75.6286 94.7893 76.6313 94.384C77.6339 93.9573 78.7006 93.744 79.8313 93.744C82.0499 93.744 83.7139 94.3413 84.8233 95.536C85.9539 96.7093 86.5193 98.2773 86.5193 100.24V110H84.1193L83.9593 107.152C83.5113 108.048 82.8499 108.816 81.9753 109.456C81.1219 110.075 79.9699 110.384 78.5193 110.384ZM78.9353 108.112C79.9593 108.112 80.8339 107.845 81.5593 107.312C82.3059 106.779 82.8713 106.085 83.2553 105.232C83.6393 104.379 83.8313 103.483 83.8313 102.544V102.512H79.7673C78.1886 102.512 77.0686 102.789 76.4073 103.344C75.7673 103.877 75.4473 104.549 75.4473 105.36C75.4473 106.192 75.7459 106.864 76.3433 107.376C76.9619 107.867 77.8259 108.112 78.9353 108.112Z" fill="#221517"/>
<path d="M0.96 197L9.216 174.6H12.064L20.288 197H17.44L15.392 191.24H5.856L3.776 197H0.96ZM6.656 189.064H14.592L10.624 177.992L6.656 189.064ZM29.783 197.384C28.2043 197.384 26.8177 197.021 25.623 196.296C24.4497 195.571 23.5323 194.579 22.871 193.32C22.231 192.061 21.911 190.632 21.911 189.032C21.911 187.432 22.2417 186.013 22.903 184.776C23.5643 183.517 24.4817 182.536 25.655 181.832C26.8283 181.107 28.215 180.744 29.815 180.744C31.1163 180.744 32.2683 181.011 33.271 181.544C34.2737 182.077 35.0523 182.824 35.607 183.784V173.96H38.295V197H35.863L35.607 194.376C35.095 195.144 34.359 195.837 33.399 196.456C32.439 197.075 31.2337 197.384 29.783 197.384ZM30.071 195.048C31.1377 195.048 32.0763 194.803 32.887 194.312C33.719 193.8 34.359 193.096 34.807 192.2C35.2763 191.304 35.511 190.259 35.511 189.064C35.511 187.869 35.2763 186.824 34.807 185.928C34.359 185.032 33.719 184.339 32.887 183.848C32.0763 183.336 31.1377 183.08 30.071 183.08C29.0257 183.08 28.087 183.336 27.255 183.848C26.4443 184.339 25.8043 185.032 25.335 185.928C24.887 186.824 24.663 187.869 24.663 189.064C24.663 190.259 24.887 191.304 25.335 192.2C25.8043 193.096 26.4443 193.8 27.255 194.312C28.087 194.803 29.0257 195.048 30.071 195.048ZM49.9088 197.384C48.4154 197.384 47.0714 197.043 45.8768 196.36C44.6821 195.677 43.7328 194.717 43.0288 193.48C42.3461 192.221 42.0048 190.749 42.0048 189.064C42.0048 187.379 42.3568 185.917 43.0608 184.68C43.7648 183.421 44.7141 182.451 45.9088 181.768C47.1248 181.085 48.4794 180.744 49.9728 180.744C51.4661 180.744 52.8101 181.085 54.0048 181.768C55.1994 182.451 56.1381 183.421 56.8208 184.68C57.5248 185.917 57.8768 187.379 57.8768 189.064C57.8768 190.749 57.5248 192.221 56.8208 193.48C56.1168 194.717 55.1568 195.677 53.9408 196.36C52.7461 197.043 51.4021 197.384 49.9088 197.384ZM49.9088 195.08C50.8261 195.08 51.6794 194.856 52.4688 194.408C53.2581 193.96 53.8981 193.288 54.3888 192.392C54.8794 191.496 55.1248 190.387 55.1248 189.064C55.1248 187.741 54.8794 186.632 54.3888 185.736C53.9194 184.84 53.2901 184.168 52.5008 183.72C51.7114 183.272 50.8688 183.048 49.9728 183.048C49.0554 183.048 48.2021 183.272 47.4128 183.72C46.6234 184.168 45.9834 184.84 45.4928 185.736C45.0021 186.632 44.7568 187.741 44.7568 189.064C44.7568 190.387 45.0021 191.496 45.4928 192.392C45.9834 193.288 46.6128 193.96 47.3808 194.408C48.1701 194.856 49.0128 195.08 49.9088 195.08ZM70.0943 197.384C68.7929 197.384 67.6303 197.117 66.6063 196.584C65.6036 196.051 64.8356 195.304 64.3023 194.344L64.0463 197H61.6143V173.96H64.3023V183.752C64.8143 182.984 65.5396 182.291 66.4783 181.672C67.4383 181.053 68.6543 180.744 70.1263 180.744C71.7049 180.744 73.0809 181.107 74.2543 181.832C75.4276 182.557 76.3343 183.549 76.9743 184.808C77.6356 186.067 77.9663 187.496 77.9663 189.096C77.9663 190.696 77.6356 192.125 76.9743 193.384C76.3343 194.621 75.4169 195.603 74.2223 196.328C73.0489 197.032 71.6729 197.384 70.0943 197.384ZM69.8063 195.048C70.8729 195.048 71.8116 194.803 72.6223 194.312C73.4329 193.8 74.0729 193.096 74.5423 192.2C75.0116 191.304 75.2463 190.259 75.2463 189.064C75.2463 187.869 75.0116 186.824 74.5423 185.928C74.0729 185.032 73.4329 184.339 72.6223 183.848C71.8116 183.336 70.8729 183.08 69.8063 183.08C68.7396 183.08 67.8009 183.336 66.9903 183.848C66.1796 184.339 65.5396 185.032 65.0703 185.928C64.6009 186.824 64.3663 187.869 64.3663 189.064C64.3663 190.259 64.6009 191.304 65.0703 192.2C65.5396 193.096 66.1796 193.8 66.9903 194.312C67.8009 194.803 68.7396 195.048 69.8063 195.048ZM88.844 197.384C87.3293 197.384 85.9853 197.043 84.812 196.36C83.6387 195.656 82.7107 194.685 82.028 193.448C81.3667 192.211 81.036 190.749 81.036 189.064C81.036 187.4 81.3667 185.949 82.028 184.712C82.6893 183.453 83.6067 182.483 84.78 181.8C85.9747 181.096 87.3507 180.744 88.908 180.744C90.444 180.744 91.7667 181.096 92.876 181.8C94.0067 182.483 94.8707 183.389 95.468 184.52C96.0653 185.651 96.364 186.867 96.364 188.168C96.364 188.403 96.3533 188.637 96.332 188.872C96.332 189.107 96.332 189.373 96.332 189.672H83.692C83.756 190.888 84.0333 191.901 84.524 192.712C85.036 193.501 85.6653 194.099 86.412 194.504C87.18 194.909 87.9907 195.112 88.844 195.112C89.9533 195.112 90.8813 194.856 91.628 194.344C92.3747 193.832 92.9187 193.139 93.26 192.264H95.916C95.4893 193.736 94.668 194.963 93.452 195.944C92.2573 196.904 90.7213 197.384 88.844 197.384ZM88.844 183.016C87.564 183.016 86.4227 183.411 85.42 184.2C84.4387 184.968 83.8733 186.099 83.724 187.592H93.708C93.644 186.163 93.1533 185.043 92.236 184.232C91.3187 183.421 90.188 183.016 88.844 183.016ZM108.556 197V174.6H111.244V197H108.556ZM115.833 197V173.96H118.521V197H115.833ZM122.927 197V173.96H125.615V197H122.927ZM135.812 197.384C133.935 197.384 132.442 196.819 131.333 195.688C130.223 194.536 129.669 192.776 129.669 190.408V181.128H132.357V190.12C132.357 193.427 133.711 195.08 136.421 195.08C137.807 195.08 138.949 194.589 139.845 193.608C140.762 192.605 141.221 191.187 141.221 189.352V181.128H143.909V197H141.477L141.285 194.152C140.794 195.155 140.058 195.944 139.077 196.52C138.117 197.096 137.029 197.384 135.812 197.384ZM154.413 197.384C152.514 197.384 150.936 196.904 149.677 195.944C148.418 194.984 147.682 193.683 147.469 192.04H150.221C150.392 192.872 150.829 193.597 151.533 194.216C152.258 194.813 153.229 195.112 154.445 195.112C155.576 195.112 156.408 194.877 156.941 194.408C157.474 193.917 157.741 193.341 157.741 192.68C157.741 191.72 157.389 191.08 156.685 190.76C156.002 190.44 155.032 190.152 153.773 189.896C152.92 189.725 152.066 189.48 151.213 189.16C150.36 188.84 149.645 188.392 149.069 187.816C148.493 187.219 148.205 186.44 148.205 185.48C148.205 184.093 148.717 182.963 149.741 182.088C150.786 181.192 152.194 180.744 153.965 180.744C155.65 180.744 157.026 181.171 158.093 182.024C159.181 182.856 159.81 184.051 159.981 185.608H157.325C157.218 184.797 156.866 184.168 156.269 183.72C155.693 183.251 154.914 183.016 153.933 183.016C152.973 183.016 152.226 183.219 151.693 183.624C151.181 184.029 150.925 184.563 150.925 185.224C150.925 185.864 151.256 186.365 151.917 186.728C152.6 187.091 153.517 187.4 154.669 187.656C155.65 187.869 156.578 188.136 157.453 188.456C158.349 188.755 159.074 189.213 159.629 189.832C160.205 190.429 160.493 191.304 160.493 192.456C160.514 193.885 159.97 195.069 158.861 196.008C157.773 196.925 156.29 197.384 154.413 197.384ZM169.886 197C168.436 197 167.294 196.648 166.462 195.944C165.63 195.24 165.214 193.971 165.214 192.136V183.4H162.462V181.128H165.214L165.566 177.32H167.902V181.128H172.574V183.4H167.902V192.136C167.902 193.139 168.105 193.821 168.51 194.184C168.916 194.525 169.63 194.696 170.654 194.696H172.318V197H169.886ZM175.989 197V181.128H178.421L178.645 184.168C179.136 183.123 179.883 182.291 180.885 181.672C181.888 181.053 183.125 180.744 184.597 180.744V183.56H183.861C182.923 183.56 182.059 183.731 181.269 184.072C180.48 184.392 179.851 184.947 179.381 185.736C178.912 186.525 178.677 187.613 178.677 189V197H175.989ZM192.894 197.384C191.572 197.384 190.473 197.16 189.598 196.712C188.724 196.264 188.073 195.667 187.646 194.92C187.22 194.173 187.006 193.363 187.006 192.488C187.006 190.867 187.625 189.619 188.862 188.744C190.1 187.869 191.785 187.432 193.918 187.432H198.206V187.24C198.206 185.853 197.844 184.808 197.118 184.104C196.393 183.379 195.422 183.016 194.206 183.016C193.161 183.016 192.254 183.283 191.486 183.816C190.74 184.328 190.27 185.085 190.078 186.088H187.326C187.433 184.936 187.817 183.965 188.478 183.176C189.161 182.387 190.004 181.789 191.006 181.384C192.009 180.957 193.076 180.744 194.206 180.744C196.425 180.744 198.089 181.341 199.198 182.536C200.329 183.709 200.894 185.277 200.894 187.24V197H198.494L198.334 194.152C197.886 195.048 197.225 195.816 196.35 196.456C195.497 197.075 194.345 197.384 192.894 197.384ZM193.31 195.112C194.334 195.112 195.209 194.845 195.934 194.312C196.681 193.779 197.246 193.085 197.63 192.232C198.014 191.379 198.206 190.483 198.206 189.544V189.512H194.142C192.564 189.512 191.444 189.789 190.782 190.344C190.142 190.877 189.822 191.549 189.822 192.36C189.822 193.192 190.121 193.864 190.718 194.376C191.337 194.867 192.201 195.112 193.31 195.112ZM210.761 197C209.311 197 208.169 196.648 207.337 195.944C206.505 195.24 206.089 193.971 206.089 192.136V183.4H203.337V181.128H206.089L206.441 177.32H208.777V181.128H213.449V183.4H208.777V192.136C208.777 193.139 208.98 193.821 209.385 194.184C209.791 194.525 210.505 194.696 211.529 194.696H213.193V197H210.761ZM223.659 197.384C222.165 197.384 220.821 197.043 219.627 196.36C218.432 195.677 217.483 194.717 216.779 193.48C216.096 192.221 215.755 190.749 215.755 189.064C215.755 187.379 216.107 185.917 216.811 184.68C217.515 183.421 218.464 182.451 219.659 181.768C220.875 181.085 222.229 180.744 223.723 180.744C225.216 180.744 226.56 181.085 227.755 181.768C228.949 182.451 229.888 183.421 230.571 184.68C231.275 185.917 231.627 187.379 231.627 189.064C231.627 190.749 231.275 192.221 230.571 193.48C229.867 194.717 228.907 195.677 227.691 196.36C226.496 197.043 225.152 197.384 223.659 197.384ZM223.659 195.08C224.576 195.08 225.429 194.856 226.219 194.408C227.008 193.96 227.648 193.288 228.139 192.392C228.629 191.496 228.875 190.387 228.875 189.064C228.875 187.741 228.629 186.632 228.139 185.736C227.669 184.84 227.04 184.168 226.251 183.72C225.461 183.272 224.619 183.048 223.723 183.048C222.805 183.048 221.952 183.272 221.163 183.72C220.373 184.168 219.733 184.84 219.243 185.736C218.752 186.632 218.507 187.741 218.507 189.064C218.507 190.387 218.752 191.496 219.243 192.392C219.733 193.288 220.363 193.96 221.131 194.408C221.92 194.856 222.763 195.08 223.659 195.08ZM235.364 197V181.128H237.796L238.02 184.168C238.511 183.123 239.258 182.291 240.26 181.672C241.263 181.053 242.5 180.744 243.972 180.744V183.56H243.236C242.298 183.56 241.434 183.731 240.644 184.072C239.855 184.392 239.226 184.947 238.756 185.736C238.287 186.525 238.052 187.613 238.052 189V197H235.364Z" fill="#221517"/>
<path d="M0.96 284L9.216 261.6H12.064L20.288 284H17.44L15.392 278.24H5.856L3.776 284H0.96ZM6.656 276.064H14.592L10.624 264.992L6.656 276.064ZM29.783 284.384C28.2043 284.384 26.8177 284.021 25.623 283.296C24.4497 282.571 23.5323 281.579 22.871 280.32C22.231 279.061 21.911 277.632 21.911 276.032C21.911 274.432 22.2417 273.013 22.903 271.776C23.5643 270.517 24.4817 269.536 25.655 268.832C26.8283 268.107 28.215 267.744 29.815 267.744C31.1163 267.744 32.2683 268.011 33.271 268.544C34.2737 269.077 35.0523 269.824 35.607 270.784V260.96H38.295V284H35.863L35.607 281.376C35.095 282.144 34.359 282.837 33.399 283.456C32.439 284.075 31.2337 284.384 29.783 284.384ZM30.071 282.048C31.1377 282.048 32.0763 281.803 32.887 281.312C33.719 280.8 34.359 280.096 34.807 279.2C35.2763 278.304 35.511 277.259 35.511 276.064C35.511 274.869 35.2763 273.824 34.807 272.928C34.359 272.032 33.719 271.339 32.887 270.848C32.0763 270.336 31.1377 270.08 30.071 270.08C29.0257 270.08 28.087 270.336 27.255 270.848C26.4443 271.339 25.8043 272.032 25.335 272.928C24.887 273.824 24.663 274.869 24.663 276.064C24.663 277.259 24.887 278.304 25.335 279.2C25.8043 280.096 26.4443 280.8 27.255 281.312C28.087 281.803 29.0257 282.048 30.071 282.048ZM49.9088 284.384C48.4154 284.384 47.0714 284.043 45.8768 283.36C44.6821 282.677 43.7328 281.717 43.0288 280.48C42.3461 279.221 42.0048 277.749 42.0048 276.064C42.0048 274.379 42.3568 272.917 43.0608 271.68C43.7648 270.421 44.7141 269.451 45.9088 268.768C47.1248 268.085 48.4794 267.744 49.9728 267.744C51.4661 267.744 52.8101 268.085 54.0048 268.768C55.1994 269.451 56.1381 270.421 56.8208 271.68C57.5248 272.917 57.8768 274.379 57.8768 276.064C57.8768 277.749 57.5248 279.221 56.8208 280.48C56.1168 281.717 55.1568 282.677 53.9408 283.36C52.7461 284.043 51.4021 284.384 49.9088 284.384ZM49.9088 282.08C50.8261 282.08 51.6794 281.856 52.4688 281.408C53.2581 280.96 53.8981 280.288 54.3888 279.392C54.8794 278.496 55.1248 277.387 55.1248 276.064C55.1248 274.741 54.8794 273.632 54.3888 272.736C53.9194 271.84 53.2901 271.168 52.5008 270.72C51.7114 270.272 50.8688 270.048 49.9728 270.048C49.0554 270.048 48.2021 270.272 47.4128 270.72C46.6234 271.168 45.9834 271.84 45.4928 272.736C45.0021 273.632 44.7568 274.741 44.7568 276.064C44.7568 277.387 45.0021 278.496 45.4928 279.392C45.9834 280.288 46.6128 280.96 47.3808 281.408C48.1701 281.856 49.0128 282.08 49.9088 282.08ZM70.0943 284.384C68.7929 284.384 67.6303 284.117 66.6063 283.584C65.6036 283.051 64.8356 282.304 64.3023 281.344L64.0463 284H61.6143V260.96H64.3023V270.752C64.8143 269.984 65.5396 269.291 66.4783 268.672C67.4383 268.053 68.6543 267.744 70.1263 267.744C71.7049 267.744 73.0809 268.107 74.2543 268.832C75.4276 269.557 76.3343 270.549 76.9743 271.808C77.6356 273.067 77.9663 274.496 77.9663 276.096C77.9663 277.696 77.6356 279.125 76.9743 280.384C76.3343 281.621 75.4169 282.603 74.2223 283.328C73.0489 284.032 71.6729 284.384 70.0943 284.384ZM69.8063 282.048C70.8729 282.048 71.8116 281.803 72.6223 281.312C73.4329 280.8 74.0729 280.096 74.5423 279.2C75.0116 278.304 75.2463 277.259 75.2463 276.064C75.2463 274.869 75.0116 273.824 74.5423 272.928C74.0729 272.032 73.4329 271.339 72.6223 270.848C71.8116 270.336 70.8729 270.08 69.8063 270.08C68.7396 270.08 67.8009 270.336 66.9903 270.848C66.1796 271.339 65.5396 272.032 65.0703 272.928C64.6009 273.824 64.3663 274.869 64.3663 276.064C64.3663 277.259 64.6009 278.304 65.0703 279.2C65.5396 280.096 66.1796 280.8 66.9903 281.312C67.8009 281.803 68.7396 282.048 69.8063 282.048ZM88.844 284.384C87.3293 284.384 85.9853 284.043 84.812 283.36C83.6387 282.656 82.7107 281.685 82.028 280.448C81.3667 279.211 81.036 277.749 81.036 276.064C81.036 274.4 81.3667 272.949 82.028 271.712C82.6893 270.453 83.6067 269.483 84.78 268.8C85.9747 268.096 87.3507 267.744 88.908 267.744C90.444 267.744 91.7667 268.096 92.876 268.8C94.0067 269.483 94.8707 270.389 95.468 271.52C96.0653 272.651 96.364 273.867 96.364 275.168C96.364 275.403 96.3533 275.637 96.332 275.872C96.332 276.107 96.332 276.373 96.332 276.672H83.692C83.756 277.888 84.0333 278.901 84.524 279.712C85.036 280.501 85.6653 281.099 86.412 281.504C87.18 281.909 87.9907 282.112 88.844 282.112C89.9533 282.112 90.8813 281.856 91.628 281.344C92.3747 280.832 92.9187 280.139 93.26 279.264H95.916C95.4893 280.736 94.668 281.963 93.452 282.944C92.2573 283.904 90.7213 284.384 88.844 284.384ZM88.844 270.016C87.564 270.016 86.4227 270.411 85.42 271.2C84.4387 271.968 83.8733 273.099 83.724 274.592H93.708C93.644 273.163 93.1533 272.043 92.236 271.232C91.3187 270.421 90.188 270.016 88.844 270.016ZM108.556 284V261.6H115.916C117.665 261.6 119.105 261.888 120.236 262.464C121.366 263.04 122.198 263.819 122.732 264.8C123.286 265.781 123.564 266.891 123.564 268.128C123.564 269.344 123.297 270.443 122.764 271.424C122.23 272.405 121.398 273.195 120.268 273.792C119.137 274.368 117.686 274.656 115.916 274.656H111.244V284H108.556ZM111.244 272.384H115.852C117.644 272.384 118.913 272.011 119.66 271.264C120.428 270.496 120.812 269.451 120.812 268.128C120.812 266.784 120.428 265.739 119.66 264.992C118.913 264.224 117.644 263.84 115.852 263.84H111.244V272.384ZM126.927 284V260.96H129.615V270.848C130.148 269.867 130.905 269.109 131.887 268.576C132.868 268.021 133.935 267.744 135.087 267.744C136.921 267.744 138.393 268.32 139.503 269.472C140.612 270.603 141.167 272.352 141.167 274.72V284H138.511V275.008C138.511 271.701 137.177 270.048 134.511 270.048C133.124 270.048 131.961 270.549 131.023 271.552C130.084 272.533 129.615 273.941 129.615 275.776V284H126.927ZM152.471 284.384C150.978 284.384 149.634 284.043 148.439 283.36C147.245 282.677 146.295 281.717 145.591 280.48C144.909 279.221 144.567 277.749 144.567 276.064C144.567 274.379 144.919 272.917 145.623 271.68C146.327 270.421 147.277 269.451 148.471 268.768C149.687 268.085 151.042 267.744 152.535 267.744C154.029 267.744 155.373 268.085 156.567 268.768C157.762 269.451 158.701 270.421 159.383 271.68C160.087 272.917 160.439 274.379 160.439 276.064C160.439 277.749 160.087 279.221 159.383 280.48C158.679 281.717 157.719 282.677 156.503 283.36C155.309 284.043 153.965 284.384 152.471 284.384ZM152.471 282.08C153.389 282.08 154.242 281.856 155.031 281.408C155.821 280.96 156.461 280.288 156.951 279.392C157.442 278.496 157.687 277.387 157.687 276.064C157.687 274.741 157.442 273.632 156.951 272.736C156.482 271.84 155.853 271.168 155.063 270.72C154.274 270.272 153.431 270.048 152.535 270.048C151.618 270.048 150.765 270.272 149.975 270.72C149.186 271.168 148.546 271.84 148.055 272.736C147.565 273.632 147.319 274.741 147.319 276.064C147.319 277.387 147.565 278.496 148.055 279.392C148.546 280.288 149.175 280.96 149.943 281.408C150.733 281.856 151.575 282.08 152.471 282.08ZM169.824 284C168.373 284 167.232 283.648 166.4 282.944C165.568 282.24 165.152 280.971 165.152 279.136V270.4H162.4V268.128H165.152L165.504 264.32H167.84V268.128H172.512V270.4H167.84V279.136C167.84 280.139 168.042 280.821 168.448 281.184C168.853 281.525 169.568 281.696 170.592 281.696H172.256V284H169.824ZM182.721 284.384C181.228 284.384 179.884 284.043 178.689 283.36C177.495 282.677 176.545 281.717 175.841 280.48C175.159 279.221 174.817 277.749 174.817 276.064C174.817 274.379 175.169 272.917 175.873 271.68C176.577 270.421 177.527 269.451 178.721 268.768C179.937 268.085 181.292 267.744 182.785 267.744C184.279 267.744 185.623 268.085 186.817 268.768C188.012 269.451 188.951 270.421 189.633 271.68C190.337 272.917 190.689 274.379 190.689 276.064C190.689 277.749 190.337 279.221 189.633 280.48C188.929 281.717 187.969 282.677 186.753 283.36C185.559 284.043 184.215 284.384 182.721 284.384ZM182.721 282.08C183.639 282.08 184.492 281.856 185.281 281.408C186.071 280.96 186.711 280.288 187.201 279.392C187.692 278.496 187.937 277.387 187.937 276.064C187.937 274.741 187.692 273.632 187.201 272.736C186.732 271.84 186.103 271.168 185.313 270.72C184.524 270.272 183.681 270.048 182.785 270.048C181.868 270.048 181.015 270.272 180.225 270.72C179.436 271.168 178.796 271.84 178.305 272.736C177.815 273.632 177.569 274.741 177.569 276.064C177.569 277.387 177.815 278.496 178.305 279.392C178.796 280.288 179.425 280.96 180.193 281.408C180.983 281.856 181.825 282.08 182.721 282.08ZM200.507 284.384C198.608 284.384 197.029 283.904 195.771 282.944C194.512 281.984 193.776 280.683 193.563 279.04H196.315C196.485 279.872 196.923 280.597 197.627 281.216C198.352 281.813 199.323 282.112 200.539 282.112C201.669 282.112 202.501 281.877 203.035 281.408C203.568 280.917 203.835 280.341 203.835 279.68C203.835 278.72 203.483 278.08 202.779 277.76C202.096 277.44 201.125 277.152 199.867 276.896C199.013 276.725 198.16 276.48 197.307 276.16C196.453 275.84 195.739 275.392 195.163 274.816C194.587 274.219 194.299 273.44 194.299 272.48C194.299 271.093 194.811 269.963 195.835 269.088C196.88 268.192 198.288 267.744 200.059 267.744C201.744 267.744 203.12 268.171 204.187 269.024C205.275 269.856 205.904 271.051 206.075 272.608H203.419C203.312 271.797 202.96 271.168 202.363 270.72C201.787 270.251 201.008 270.016 200.027 270.016C199.067 270.016 198.32 270.219 197.787 270.624C197.275 271.029 197.019 271.563 197.019 272.224C197.019 272.864 197.349 273.365 198.011 273.728C198.693 274.091 199.611 274.4 200.763 274.656C201.744 274.869 202.672 275.136 203.547 275.456C204.443 275.755 205.168 276.213 205.723 276.832C206.299 277.429 206.587 278.304 206.587 279.456C206.608 280.885 206.064 282.069 204.955 283.008C203.867 283.925 202.384 284.384 200.507 284.384ZM210.427 284V260.96H213.115V270.848C213.648 269.867 214.405 269.109 215.387 268.576C216.368 268.021 217.435 267.744 218.587 267.744C220.421 267.744 221.893 268.32 223.003 269.472C224.112 270.603 224.667 272.352 224.667 274.72V284H222.011V275.008C222.011 271.701 220.677 270.048 218.011 270.048C216.624 270.048 215.461 270.549 214.523 271.552C213.584 272.533 213.115 273.941 213.115 275.776V284H210.427ZM235.971 284.384C234.478 284.384 233.134 284.043 231.939 283.36C230.745 282.677 229.795 281.717 229.091 280.48C228.409 279.221 228.067 277.749 228.067 276.064C228.067 274.379 228.419 272.917 229.123 271.68C229.827 270.421 230.777 269.451 231.971 268.768C233.187 268.085 234.542 267.744 236.035 267.744C237.529 267.744 238.873 268.085 240.067 268.768C241.262 269.451 242.201 270.421 242.883 271.68C243.587 272.917 243.939 274.379 243.939 276.064C243.939 277.749 243.587 279.221 242.883 280.48C242.179 281.717 241.219 282.677 240.003 283.36C238.809 284.043 237.465 284.384 235.971 284.384ZM235.971 282.08C236.889 282.08 237.742 281.856 238.531 281.408C239.321 280.96 239.961 280.288 240.451 279.392C240.942 278.496 241.187 277.387 241.187 276.064C241.187 274.741 240.942 273.632 240.451 272.736C239.982 271.84 239.353 271.168 238.563 270.72C237.774 270.272 236.931 270.048 236.035 270.048C235.118 270.048 234.265 270.272 233.475 270.72C232.686 271.168 232.046 271.84 231.555 272.736C231.065 273.632 230.819 274.741 230.819 276.064C230.819 277.387 231.065 278.496 231.555 279.392C232.046 280.288 232.675 280.96 233.443 281.408C234.233 281.856 235.075 282.08 235.971 282.08ZM247.677 291.04V268.128H250.109L250.365 270.752C250.877 269.984 251.602 269.291 252.541 268.672C253.501 268.053 254.717 267.744 256.189 267.744C257.767 267.744 259.143 268.107 260.317 268.832C261.49 269.557 262.397 270.549 263.037 271.808C263.698 273.067 264.029 274.496 264.029 276.096C264.029 277.696 263.698 279.125 263.037 280.384C262.397 281.621 261.479 282.603 260.285 283.328C259.111 284.032 257.735 284.384 256.157 284.384C254.855 284.384 253.693 284.117 252.669 283.584C251.666 283.051 250.898 282.304 250.365 281.344V291.04H247.677ZM255.869 282.048C256.935 282.048 257.874 281.803 258.685 281.312C259.495 280.8 260.135 280.096 260.605 279.2C261.074 278.304 261.309 277.259 261.309 276.064C261.309 274.869 261.074 273.824 260.605 272.928C260.135 272.032 259.495 271.339 258.685 270.848C257.874 270.336 256.935 270.08 255.869 270.08C254.802 270.08 253.863 270.336 253.053 270.848C252.242 271.339 251.602 272.032 251.133 272.928C250.663 273.824 250.429 274.869 250.429 276.064C250.429 277.259 250.663 278.304 251.133 279.2C251.602 280.096 252.242 280.8 253.053 281.312C253.863 281.803 254.802 282.048 255.869 282.048Z" fill="#221517"/>
<path d="M2.368 371V348.6H5.056V358.488H16.672V348.6H19.36V371H16.672V360.696H5.056V371H2.368ZM29.3348 371V350.808H22.6468V348.6H38.7108V350.808H32.0228V371H29.3348ZM41.993 371V348.6H45.129L53.193 364.216L61.193 348.6H64.361V371H61.673V353.4L54.185 367.8H52.169L44.681 353.432V371H41.993ZM69.0868 371V348.6H71.7748V368.856H82.2068V371H69.0868ZM95.968 351.608C95.456 351.608 95.0187 351.437 94.656 351.096C94.2933 350.733 94.112 350.285 94.112 349.752C94.112 349.24 94.2933 348.813 94.656 348.472C95.0187 348.131 95.456 347.96 95.968 347.96C96.48 347.96 96.9067 348.131 97.248 348.472C97.6107 348.813 97.792 349.24 97.792 349.752C97.792 350.285 97.6107 350.733 97.248 351.096C96.9067 351.437 96.48 351.608 95.968 351.608ZM91.104 378.04V375.736H92.352C93.1413 375.736 93.7067 375.565 94.048 375.224C94.4107 374.904 94.592 374.349 94.592 373.56V355.128H97.28V373.624C97.28 375.16 96.896 376.28 96.128 376.984C95.36 377.688 94.24 378.04 92.768 378.04H91.104ZM107.238 371.384C105.915 371.384 104.817 371.16 103.942 370.712C103.067 370.264 102.417 369.667 101.99 368.92C101.563 368.173 101.35 367.363 101.35 366.488C101.35 364.867 101.969 363.619 103.206 362.744C104.443 361.869 106.129 361.432 108.262 361.432H112.55V361.24C112.55 359.853 112.187 358.808 111.462 358.104C110.737 357.379 109.766 357.016 108.55 357.016C107.505 357.016 106.598 357.283 105.83 357.816C105.083 358.328 104.614 359.085 104.422 360.088H101.67C101.777 358.936 102.161 357.965 102.822 357.176C103.505 356.387 104.347 355.789 105.35 355.384C106.353 354.957 107.419 354.744 108.55 354.744C110.769 354.744 112.433 355.341 113.542 356.536C114.673 357.709 115.238 359.277 115.238 361.24V371H112.838L112.678 368.152C112.23 369.048 111.569 369.816 110.694 370.456C109.841 371.075 108.689 371.384 107.238 371.384ZM107.654 369.112C108.678 369.112 109.553 368.845 110.278 368.312C111.025 367.779 111.59 367.085 111.974 366.232C112.358 365.379 112.55 364.483 112.55 363.544V363.512H108.486C106.907 363.512 105.787 363.789 105.126 364.344C104.486 364.877 104.166 365.549 104.166 366.36C104.166 367.192 104.465 367.864 105.062 368.376C105.681 368.867 106.545 369.112 107.654 369.112ZM137.723 371.384C135.526 371.384 133.627 370.904 132.027 369.944C130.449 368.963 129.222 367.608 128.347 365.88C127.473 364.131 127.035 362.104 127.035 359.8C127.035 357.517 127.473 355.512 128.347 353.784C129.222 352.035 130.449 350.669 132.027 349.688C133.627 348.707 135.526 348.216 137.723 348.216C140.283 348.216 142.363 348.835 143.963 350.072C145.585 351.288 146.619 352.995 147.067 355.192H144.091C143.75 353.805 143.046 352.696 141.979 351.864C140.934 351.011 139.515 350.584 137.723 350.584C136.123 350.584 134.726 350.957 133.531 351.704C132.337 352.429 131.409 353.485 130.747 354.872C130.107 356.237 129.787 357.88 129.787 359.8C129.787 361.72 130.107 363.373 130.747 364.76C131.409 366.125 132.337 367.181 133.531 367.928C134.726 368.653 136.123 369.016 137.723 369.016C139.515 369.016 140.934 368.611 141.979 367.8C143.046 366.968 143.75 365.869 144.091 364.504H147.067C146.619 366.659 145.585 368.344 143.963 369.56C142.363 370.776 140.283 371.384 137.723 371.384ZM158.067 371.384C156.424 371.384 154.995 371.085 153.779 370.488C152.563 369.891 151.624 369.059 150.963 367.992C150.301 366.925 149.971 365.688 149.971 364.28H152.786C152.786 365.155 152.989 365.965 153.395 366.712C153.8 367.437 154.387 368.024 155.155 368.472C155.944 368.899 156.915 369.112 158.067 369.112C159.581 369.112 160.755 368.749 161.587 368.024C162.419 367.299 162.835 366.392 162.835 365.304C162.835 364.408 162.643 363.693 162.259 363.16C161.875 362.605 161.352 362.157 160.691 361.816C160.051 361.475 159.304 361.176 158.451 360.92C157.619 360.664 156.744 360.376 155.827 360.056C154.099 359.459 152.819 358.723 151.987 357.848C151.155 356.952 150.739 355.789 150.739 354.36C150.717 353.165 150.995 352.109 151.571 351.192C152.147 350.253 152.957 349.528 154.003 349.016C155.069 348.483 156.328 348.216 157.779 348.216C159.208 348.216 160.445 348.483 161.491 349.016C162.557 349.549 163.379 350.285 163.955 351.224C164.552 352.163 164.861 353.229 164.883 354.424H162.067C162.067 353.805 161.907 353.197 161.587 352.6C161.267 351.981 160.776 351.48 160.115 351.096C159.475 350.712 158.664 350.52 157.683 350.52C156.467 350.499 155.464 350.808 154.675 351.448C153.907 352.088 153.523 352.973 153.523 354.104C153.523 355.064 153.789 355.8 154.323 356.312C154.877 356.824 155.645 357.251 156.627 357.592C157.608 357.912 158.739 358.285 160.019 358.712C161.085 359.096 162.045 359.544 162.899 360.056C163.752 360.568 164.413 361.229 164.883 362.04C165.373 362.851 165.619 363.885 165.619 365.144C165.619 366.211 165.341 367.224 164.787 368.184C164.232 369.123 163.389 369.891 162.259 370.488C161.149 371.085 159.752 371.384 158.067 371.384ZM176.567 371.384C174.924 371.384 173.495 371.085 172.279 370.488C171.063 369.891 170.124 369.059 169.463 367.992C168.801 366.925 168.471 365.688 168.471 364.28H171.286C171.286 365.155 171.489 365.965 171.895 366.712C172.3 367.437 172.887 368.024 173.655 368.472C174.444 368.899 175.415 369.112 176.567 369.112C178.081 369.112 179.255 368.749 180.087 368.024C180.919 367.299 181.335 366.392 181.335 365.304C181.335 364.408 181.143 363.693 180.759 363.16C180.375 362.605 179.852 362.157 179.191 361.816C178.551 361.475 177.804 361.176 176.951 360.92C176.119 360.664 175.244 360.376 174.327 360.056C172.599 359.459 171.319 358.723 170.487 357.848C169.655 356.952 169.239 355.789 169.239 354.36C169.217 353.165 169.495 352.109 170.071 351.192C170.647 350.253 171.457 349.528 172.503 349.016C173.569 348.483 174.828 348.216 176.279 348.216C177.708 348.216 178.945 348.483 179.991 349.016C181.057 349.549 181.879 350.285 182.455 351.224C183.052 352.163 183.361 353.229 183.383 354.424H180.567C180.567 353.805 180.407 353.197 180.087 352.6C179.767 351.981 179.276 351.48 178.615 351.096C177.975 350.712 177.164 350.52 176.183 350.52C174.967 350.499 173.964 350.808 173.175 351.448C172.407 352.088 172.023 352.973 172.023 354.104C172.023 355.064 172.289 355.8 172.823 356.312C173.377 356.824 174.145 357.251 175.127 357.592C176.108 357.912 177.239 358.285 178.519 358.712C179.585 359.096 180.545 359.544 181.399 360.056C182.252 360.568 182.913 361.229 183.383 362.04C183.873 362.851 184.119 363.885 184.119 365.144C184.119 366.211 183.841 367.224 183.287 368.184C182.732 369.123 181.889 369.891 180.759 370.488C179.649 371.085 178.252 371.384 176.567 371.384Z" fill="#221517"/>
<path d="M0.96 458L9.216 435.6H12.064L20.288 458H17.44L15.392 452.24H5.856L3.776 458H0.96ZM6.656 450.064H14.592L10.624 438.992L6.656 450.064ZM29.783 458.384C28.2043 458.384 26.8177 458.021 25.623 457.296C24.4497 456.571 23.5323 455.579 22.871 454.32C22.231 453.061 21.911 451.632 21.911 450.032C21.911 448.432 22.2417 447.013 22.903 445.776C23.5643 444.517 24.4817 443.536 25.655 442.832C26.8283 442.107 28.215 441.744 29.815 441.744C31.1163 441.744 32.2683 442.011 33.271 442.544C34.2737 443.077 35.0523 443.824 35.607 444.784V434.96H38.295V458H35.863L35.607 455.376C35.095 456.144 34.359 456.837 33.399 457.456C32.439 458.075 31.2337 458.384 29.783 458.384ZM30.071 456.048C31.1377 456.048 32.0763 455.803 32.887 455.312C33.719 454.8 34.359 454.096 34.807 453.2C35.2763 452.304 35.511 451.259 35.511 450.064C35.511 448.869 35.2763 447.824 34.807 446.928C34.359 446.032 33.719 445.339 32.887 444.848C32.0763 444.336 31.1377 444.08 30.071 444.08C29.0257 444.08 28.087 444.336 27.255 444.848C26.4443 445.339 25.8043 446.032 25.335 446.928C24.887 447.824 24.663 448.869 24.663 450.064C24.663 451.259 24.887 452.304 25.335 453.2C25.8043 454.096 26.4443 454.8 27.255 455.312C28.087 455.803 29.0257 456.048 30.071 456.048ZM49.9088 458.384C48.4154 458.384 47.0714 458.043 45.8768 457.36C44.6821 456.677 43.7328 455.717 43.0288 454.48C42.3461 453.221 42.0048 451.749 42.0048 450.064C42.0048 448.379 42.3568 446.917 43.0608 445.68C43.7648 444.421 44.7141 443.451 45.9088 442.768C47.1248 442.085 48.4794 441.744 49.9728 441.744C51.4661 441.744 52.8101 442.085 54.0048 442.768C55.1994 443.451 56.1381 444.421 56.8208 445.68C57.5248 446.917 57.8768 448.379 57.8768 450.064C57.8768 451.749 57.5248 453.221 56.8208 454.48C56.1168 455.717 55.1568 456.677 53.9408 457.36C52.7461 458.043 51.4021 458.384 49.9088 458.384ZM49.9088 456.08C50.8261 456.08 51.6794 455.856 52.4688 455.408C53.2581 454.96 53.8981 454.288 54.3888 453.392C54.8794 452.496 55.1248 451.387 55.1248 450.064C55.1248 448.741 54.8794 447.632 54.3888 446.736C53.9194 445.84 53.2901 445.168 52.5008 444.72C51.7114 444.272 50.8688 444.048 49.9728 444.048C49.0554 444.048 48.2021 444.272 47.4128 444.72C46.6234 445.168 45.9834 445.84 45.4928 446.736C45.0021 447.632 44.7568 448.741 44.7568 450.064C44.7568 451.387 45.0021 452.496 45.4928 453.392C45.9834 454.288 46.6128 454.96 47.3808 455.408C48.1701 455.856 49.0128 456.08 49.9088 456.08ZM70.0943 458.384C68.7929 458.384 67.6303 458.117 66.6063 457.584C65.6036 457.051 64.8356 456.304 64.3023 455.344L64.0463 458H61.6143V434.96H64.3023V444.752C64.8143 443.984 65.5396 443.291 66.4783 442.672C67.4383 442.053 68.6543 441.744 70.1263 441.744C71.7049 441.744 73.0809 442.107 74.2543 442.832C75.4276 443.557 76.3343 444.549 76.9743 445.808C77.6356 447.067 77.9663 448.496 77.9663 450.096C77.9663 451.696 77.6356 453.125 76.9743 454.384C76.3343 455.621 75.4169 456.603 74.2223 457.328C73.0489 458.032 71.6729 458.384 70.0943 458.384ZM69.8063 456.048C70.8729 456.048 71.8116 455.803 72.6223 455.312C73.4329 454.8 74.0729 454.096 74.5423 453.2C75.0116 452.304 75.2463 451.259 75.2463 450.064C75.2463 448.869 75.0116 447.824 74.5423 446.928C74.0729 446.032 73.4329 445.339 72.6223 444.848C71.8116 444.336 70.8729 444.08 69.8063 444.08C68.7396 444.08 67.8009 444.336 66.9903 444.848C66.1796 445.339 65.5396 446.032 65.0703 446.928C64.6009 447.824 64.3663 448.869 64.3663 450.064C64.3663 451.259 64.6009 452.304 65.0703 453.2C65.5396 454.096 66.1796 454.8 66.9903 455.312C67.8009 455.803 68.7396 456.048 69.8063 456.048ZM88.844 458.384C87.3293 458.384 85.9853 458.043 84.812 457.36C83.6387 456.656 82.7107 455.685 82.028 454.448C81.3667 453.211 81.036 451.749 81.036 450.064C81.036 448.4 81.3667 446.949 82.028 445.712C82.6893 444.453 83.6067 443.483 84.78 442.8C85.9747 442.096 87.3507 441.744 88.908 441.744C90.444 441.744 91.7667 442.096 92.876 442.8C94.0067 443.483 94.8707 444.389 95.468 445.52C96.0653 446.651 96.364 447.867 96.364 449.168C96.364 449.403 96.3533 449.637 96.332 449.872C96.332 450.107 96.332 450.373 96.332 450.672H83.692C83.756 451.888 84.0333 452.901 84.524 453.712C85.036 454.501 85.6653 455.099 86.412 455.504C87.18 455.909 87.9907 456.112 88.844 456.112C89.9533 456.112 90.8813 455.856 91.628 455.344C92.3747 454.832 92.9187 454.139 93.26 453.264H95.916C95.4893 454.736 94.668 455.963 93.452 456.944C92.2573 457.904 90.7213 458.384 88.844 458.384ZM88.844 444.016C87.564 444.016 86.4227 444.411 85.42 445.2C84.4387 445.968 83.8733 447.099 83.724 448.592H93.708C93.644 447.163 93.1533 446.043 92.236 445.232C91.3187 444.421 90.188 444.016 88.844 444.016ZM107.148 458L115.404 435.6H118.252L126.476 458H123.628L121.58 452.24H112.044L109.964 458H107.148ZM112.844 450.064H120.78L116.812 438.992L112.844 450.064ZM129.978 458V444.4H127.578V442.128H129.978V439.376C129.978 437.84 130.362 436.72 131.13 436.016C131.898 435.312 133.018 434.96 134.49 434.96H136.09V437.264H134.906C134.096 437.264 133.52 437.435 133.178 437.776C132.837 438.096 132.666 438.651 132.666 439.44V442.128H136.57V444.4H132.666V458H129.978ZM146.043 458C144.592 458 143.451 457.648 142.619 456.944C141.787 456.24 141.371 454.971 141.371 453.136V444.4H138.618V442.128H141.371L141.723 438.32H144.059V442.128H148.731V444.4H144.059V453.136C144.059 454.139 144.261 454.821 144.667 455.184C145.072 455.525 145.787 455.696 146.811 455.696H148.475V458H146.043ZM158.844 458.384C157.329 458.384 155.985 458.043 154.812 457.36C153.639 456.656 152.711 455.685 152.028 454.448C151.367 453.211 151.036 451.749 151.036 450.064C151.036 448.4 151.367 446.949 152.028 445.712C152.689 444.453 153.607 443.483 154.78 442.8C155.975 442.096 157.351 441.744 158.908 441.744C160.444 441.744 161.767 442.096 162.876 442.8C164.007 443.483 164.871 444.389 165.468 445.52C166.065 446.651 166.364 447.867 166.364 449.168C166.364 449.403 166.353 449.637 166.332 449.872C166.332 450.107 166.332 450.373 166.332 450.672H153.692C153.756 451.888 154.033 452.901 154.524 453.712C155.036 454.501 155.665 455.099 156.412 455.504C157.18 455.909 157.991 456.112 158.844 456.112C159.953 456.112 160.881 455.856 161.628 455.344C162.375 454.832 162.919 454.139 163.26 453.264H165.916C165.489 454.736 164.668 455.963 163.452 456.944C162.257 457.904 160.721 458.384 158.844 458.384ZM158.844 444.016C157.564 444.016 156.423 444.411 155.42 445.2C154.439 445.968 153.873 447.099 153.724 448.592H163.708C163.644 447.163 163.153 446.043 162.236 445.232C161.319 444.421 160.188 444.016 158.844 444.016ZM169.927 458V442.128H172.359L172.583 445.168C173.073 444.123 173.82 443.291 174.823 442.672C175.825 442.053 177.063 441.744 178.535 441.744V444.56H177.799C176.86 444.56 175.996 444.731 175.207 445.072C174.417 445.392 173.788 445.947 173.319 446.736C172.849 447.525 172.615 448.613 172.615 450V458H169.927ZM190.181 458V435.6H204.037V437.808H192.869V445.616H203.077V447.792H192.869V455.792H204.037V458H190.181ZM208.947 458V444.4H206.547V442.128H208.947V439.376C208.947 437.84 209.331 436.72 210.099 436.016C210.867 435.312 211.987 434.96 213.459 434.96H215.059V437.264H213.875C213.064 437.264 212.488 437.435 212.147 437.776C211.806 438.096 211.635 438.651 211.635 439.44V442.128H215.539V444.4H211.635V458H208.947ZM219.603 458V444.4H217.203V442.128H219.603V439.376C219.603 437.84 219.987 436.72 220.755 436.016C221.523 435.312 222.643 434.96 224.115 434.96H225.715V437.264H224.531C223.721 437.264 223.145 437.435 222.803 437.776C222.462 438.096 222.291 438.651 222.291 439.44V442.128H226.195V444.4H222.291V458H219.603ZM235.907 458.384C234.392 458.384 233.048 458.043 231.875 457.36C230.701 456.656 229.773 455.685 229.091 454.448C228.429 453.211 228.099 451.749 228.099 450.064C228.099 448.4 228.429 446.949 229.091 445.712C229.752 444.453 230.669 443.483 231.843 442.8C233.037 442.096 234.413 441.744 235.97 441.744C237.507 441.744 238.829 442.096 239.939 442.8C241.069 443.483 241.933 444.389 242.531 445.52C243.128 446.651 243.427 447.867 243.427 449.168C243.427 449.403 243.416 449.637 243.395 449.872C243.395 450.107 243.395 450.373 243.395 450.672H230.755C230.819 451.888 231.096 452.901 231.587 453.712C232.099 454.501 232.728 455.099 233.475 455.504C234.243 455.909 235.053 456.112 235.907 456.112C237.016 456.112 237.944 455.856 238.691 455.344C239.437 454.832 239.981 454.139 240.323 453.264H242.979C242.552 454.736 241.731 455.963 240.515 456.944C239.32 457.904 237.784 458.384 235.907 458.384ZM235.907 444.016C234.627 444.016 233.485 444.411 232.483 445.2C231.501 445.968 230.936 447.099 230.786 448.592H240.771C240.707 447.163 240.216 446.043 239.299 445.232C238.381 444.421 237.251 444.016 235.907 444.016ZM254.285 458.384C252.771 458.384 251.405 458.043 250.189 457.36C248.995 456.656 248.045 455.685 247.341 454.448C246.659 453.189 246.317 451.728 246.317 450.064C246.317 448.4 246.659 446.949 247.341 445.712C248.045 444.453 248.995 443.483 250.189 442.8C251.405 442.096 252.771 441.744 254.285 441.744C256.163 441.744 257.741 442.235 259.021 443.216C260.323 444.197 261.144 445.509 261.485 447.152H258.733C258.52 446.171 257.997 445.413 257.165 444.88C256.333 444.325 255.363 444.048 254.253 444.048C253.357 444.048 252.515 444.272 251.725 444.72C250.936 445.168 250.296 445.84 249.805 446.736C249.315 447.632 249.069 448.741 249.069 450.064C249.069 451.387 249.315 452.496 249.805 453.392C250.296 454.288 250.936 454.971 251.725 455.44C252.515 455.888 253.357 456.112 254.253 456.112C255.363 456.112 256.333 455.845 257.165 455.312C257.997 454.757 258.52 453.979 258.733 452.976H261.485C261.165 454.576 260.355 455.877 259.053 456.88C257.752 457.883 256.163 458.384 254.285 458.384ZM271.074 458C269.623 458 268.482 457.648 267.65 456.944C266.818 456.24 266.402 454.971 266.402 453.136V444.4H263.65V442.128H266.402L266.754 438.32H269.09V442.128H273.762V444.4H269.09V453.136C269.09 454.139 269.292 454.821 269.698 455.184C270.103 455.525 270.818 455.696 271.842 455.696H273.506V458H271.074ZM283.257 458.384C281.358 458.384 279.779 457.904 278.521 456.944C277.262 455.984 276.526 454.683 276.313 453.04H279.065C279.235 453.872 279.673 454.597 280.377 455.216C281.102 455.813 282.073 456.112 283.289 456.112C284.419 456.112 285.251 455.877 285.785 455.408C286.318 454.917 286.585 454.341 286.585 453.68C286.585 452.72 286.233 452.08 285.529 451.76C284.846 451.44 283.875 451.152 282.617 450.896C281.763 450.725 280.91 450.48 280.057 450.16C279.203 449.84 278.489 449.392 277.913 448.816C277.337 448.219 277.049 447.44 277.049 446.48C277.049 445.093 277.561 443.963 278.585 443.088C279.63 442.192 281.038 441.744 282.809 441.744C284.494 441.744 285.87 442.171 286.937 443.024C288.025 443.856 288.654 445.051 288.825 446.608H286.169C286.062 445.797 285.71 445.168 285.113 444.72C284.537 444.251 283.758 444.016 282.777 444.016C281.817 444.016 281.07 444.219 280.537 444.624C280.025 445.029 279.769 445.563 279.769 446.224C279.769 446.864 280.099 447.365 280.761 447.728C281.443 448.091 282.361 448.4 283.513 448.656C284.494 448.869 285.422 449.136 286.297 449.456C287.193 449.755 287.918 450.213 288.473 450.832C289.049 451.429 289.337 452.304 289.337 453.456C289.358 454.885 288.814 456.069 287.705 457.008C286.617 457.925 285.134 458.384 283.257 458.384Z" fill="#221517"/>
<path d="M6.976 545.032L0.832 522.6H3.712L8.544 541.832L14.048 522.6H17.024L22.368 541.832L27.264 522.6H30.144L23.872 545H20.8L15.456 526.504L9.984 545L6.976 545.032ZM38.6565 545.384C37.1418 545.384 35.7978 545.043 34.6245 544.36C33.4512 543.656 32.5232 542.685 31.8405 541.448C31.1792 540.211 30.8485 538.749 30.8485 537.064C30.8485 535.4 31.1792 533.949 31.8405 532.712C32.5018 531.453 33.4192 530.483 34.5925 529.8C35.7872 529.096 37.1632 528.744 38.7205 528.744C40.2565 528.744 41.5792 529.096 42.6885 529.8C43.8192 530.483 44.6832 531.389 45.2805 532.52C45.8778 533.651 46.1765 534.867 46.1765 536.168C46.1765 536.403 46.1658 536.637 46.1445 536.872C46.1445 537.107 46.1445 537.373 46.1445 537.672H33.5045C33.5685 538.888 33.8458 539.901 34.3365 540.712C34.8485 541.501 35.4778 542.099 36.2245 542.504C36.9925 542.909 37.8032 543.112 38.6565 543.112C39.7658 543.112 40.6938 542.856 41.4405 542.344C42.1872 541.832 42.7312 541.139 43.0725 540.264H45.7285C45.3018 541.736 44.4805 542.963 43.2645 543.944C42.0698 544.904 40.5338 545.384 38.6565 545.384ZM38.6565 531.016C37.3765 531.016 36.2352 531.411 35.2325 532.2C34.2512 532.968 33.6858 534.099 33.5365 535.592H43.5205C43.4565 534.163 42.9658 533.043 42.0485 532.232C41.1312 531.421 40.0005 531.016 38.6565 531.016ZM58.2193 545.384C56.9179 545.384 55.7553 545.117 54.7313 544.584C53.7286 544.051 52.9606 543.304 52.4273 542.344L52.1713 545H49.7393V521.96H52.4273V531.752C52.9393 530.984 53.6646 530.291 54.6033 529.672C55.5633 529.053 56.7793 528.744 58.2513 528.744C59.8299 528.744 61.2059 529.107 62.3793 529.832C63.5526 530.557 64.4593 531.549 65.0993 532.808C65.7606 534.067 66.0913 535.496 66.0913 537.096C66.0913 538.696 65.7606 540.125 65.0993 541.384C64.4593 542.621 63.5419 543.603 62.3473 544.328C61.1739 545.032 59.7979 545.384 58.2193 545.384ZM57.9313 543.048C58.9979 543.048 59.9366 542.803 60.7473 542.312C61.5579 541.8 62.1979 541.096 62.6673 540.2C63.1366 539.304 63.3713 538.259 63.3713 537.064C63.3713 535.869 63.1366 534.824 62.6673 533.928C62.1979 533.032 61.5579 532.339 60.7473 531.848C59.9366 531.336 58.9979 531.08 57.9313 531.08C56.8646 531.08 55.9259 531.336 55.1153 531.848C54.3046 532.339 53.6646 533.032 53.1953 533.928C52.7259 534.824 52.4913 535.869 52.4913 537.064C52.4913 538.259 52.7259 539.304 53.1953 540.2C53.6646 541.096 54.3046 541.8 55.1153 542.312C55.9259 542.803 56.8646 543.048 57.9313 543.048ZM70.697 545V531.4H68.297V529.128H70.697V526.376C70.697 524.84 71.081 523.72 71.849 523.016C72.617 522.312 73.737 521.96 75.209 521.96H76.809V524.264H75.625C74.8143 524.264 74.2383 524.435 73.897 524.776C73.5557 525.096 73.385 525.651 73.385 526.44V529.128H77.289V531.4H73.385V545H70.697ZM80.489 545V521.96H83.177V545H80.489ZM94.815 545.384C93.3217 545.384 91.9777 545.043 90.783 544.36C89.5883 543.677 88.639 542.717 87.935 541.48C87.2523 540.221 86.911 538.749 86.911 537.064C86.911 535.379 87.263 533.917 87.967 532.68C88.671 531.421 89.6203 530.451 90.815 529.768C92.031 529.085 93.3857 528.744 94.879 528.744C96.3723 528.744 97.7163 529.085 98.911 529.768C100.106 530.451 101.044 531.421 101.727 532.68C102.431 533.917 102.783 535.379 102.783 537.064C102.783 538.749 102.431 540.221 101.727 541.48C101.023 542.717 100.063 543.677 98.847 544.36C97.6523 545.043 96.3083 545.384 94.815 545.384ZM94.815 543.08C95.7323 543.08 96.5857 542.856 97.375 542.408C98.1643 541.96 98.8043 541.288 99.295 540.392C99.7857 539.496 100.031 538.387 100.031 537.064C100.031 535.741 99.7857 534.632 99.295 533.736C98.8257 532.84 98.1963 532.168 97.407 531.72C96.6177 531.272 95.775 531.048 94.879 531.048C93.9617 531.048 93.1083 531.272 92.319 531.72C91.5297 532.168 90.8897 532.84 90.399 533.736C89.9083 534.632 89.663 535.741 89.663 537.064C89.663 538.387 89.9083 539.496 90.399 540.392C90.8897 541.288 91.519 541.96 92.287 542.408C93.0763 542.856 93.919 543.08 94.815 543.08ZM109.127 545L104.487 529.128H107.175L110.535 541.576L114.247 529.128H117.287L121.031 541.576L124.359 529.128H127.079L122.439 545H119.687L115.783 531.912L111.879 545H109.127Z" fill="#221517"/>
<path d="M9.504 632.384C7.86133 632.384 6.432 632.085 5.216 631.488C4 630.891 3.06133 630.059 2.4 628.992C1.73867 627.925 1.408 626.688 1.408 625.28H4.224C4.224 626.155 4.42667 626.965 4.832 627.712C5.23733 628.437 5.824 629.024 6.592 629.472C7.38133 629.899 8.352 630.112 9.504 630.112C11.0187 630.112 12.192 629.749 13.024 629.024C13.856 628.299 14.272 627.392 14.272 626.304C14.272 625.408 14.08 624.693 13.696 624.16C13.312 623.605 12.7893 623.157 12.128 622.816C11.488 622.475 10.7413 622.176 9.888 621.92C9.056 621.664 8.18133 621.376 7.264 621.056C5.536 620.459 4.256 619.723 3.424 618.848C2.592 617.952 2.176 616.789 2.176 615.36C2.15467 614.165 2.432 613.109 3.008 612.192C3.584 611.253 4.39467 610.528 5.44 610.016C6.50667 609.483 7.76533 609.216 9.216 609.216C10.6453 609.216 11.8827 609.483 12.928 610.016C13.9947 610.549 14.816 611.285 15.392 612.224C15.9893 613.163 16.2987 614.229 16.32 615.424H13.504C13.504 614.805 13.344 614.197 13.024 613.6C12.704 612.981 12.2133 612.48 11.552 612.096C10.912 611.712 10.1013 611.52 9.12 611.52C7.904 611.499 6.90133 611.808 6.112 612.448C5.344 613.088 4.96 613.973 4.96 615.104C4.96 616.064 5.22667 616.8 5.76 617.312C6.31467 617.824 7.08267 618.251 8.064 618.592C9.04533 618.912 10.176 619.285 11.456 619.712C12.5227 620.096 13.4827 620.544 14.336 621.056C15.1893 621.568 15.8507 622.229 16.32 623.04C16.8107 623.851 17.056 624.885 17.056 626.144C17.056 627.211 16.7787 628.224 16.224 629.184C15.6693 630.123 14.8267 630.891 13.696 631.488C12.5867 632.085 11.1893 632.384 9.504 632.384ZM20.708 639.04V616.128H23.14L23.396 618.752C23.908 617.984 24.6333 617.291 25.572 616.672C26.532 616.053 27.748 615.744 29.22 615.744C30.7987 615.744 32.1747 616.107 33.348 616.832C34.5213 617.557 35.428 618.549 36.068 619.808C36.7293 621.067 37.06 622.496 37.06 624.096C37.06 625.696 36.7293 627.125 36.068 628.384C35.428 629.621 34.5107 630.603 33.316 631.328C32.1427 632.032 30.7667 632.384 29.188 632.384C27.8867 632.384 26.724 632.117 25.7 631.584C24.6973 631.051 23.9293 630.304 23.396 629.344V639.04H20.708ZM28.9 630.048C29.9667 630.048 30.9053 629.803 31.716 629.312C32.5267 628.8 33.1667 628.096 33.636 627.2C34.1053 626.304 34.34 625.259 34.34 624.064C34.34 622.869 34.1053 621.824 33.636 620.928C33.1667 620.032 32.5267 619.339 31.716 618.848C30.9053 618.336 29.9667 618.08 28.9 618.08C27.8333 618.08 26.8947 618.336 26.084 618.848C25.2733 619.339 24.6333 620.032 24.164 620.928C23.6947 621.824 23.46 622.869 23.46 624.064C23.46 625.259 23.6947 626.304 24.164 627.2C24.6333 628.096 25.2733 628.8 26.084 629.312C26.8947 629.803 27.8333 630.048 28.9 630.048ZM40.8018 632V608.96H43.4898V632H40.8018ZM49.5275 612.608C48.9942 612.608 48.5462 612.437 48.1835 612.096C47.8422 611.733 47.6715 611.285 47.6715 610.752C47.6715 610.24 47.8422 609.813 48.1835 609.472C48.5462 609.131 48.9942 608.96 49.5275 608.96C50.0395 608.96 50.4768 609.131 50.8395 609.472C51.2022 609.813 51.3835 610.24 51.3835 610.752C51.3835 611.285 51.2022 611.733 50.8395 612.096C50.4768 612.437 50.0395 612.608 49.5275 612.608ZM48.1835 632V616.128H50.8715V632H48.1835ZM55.5518 632V616.128H57.9838L58.1438 618.976C58.6558 617.973 59.3918 617.184 60.3518 616.608C61.3118 616.032 62.3998 615.744 63.6158 615.744C65.4931 615.744 66.9864 616.32 68.0958 617.472C69.2264 618.603 69.7917 620.352 69.7917 622.72V632H67.1038V623.008C67.1038 619.701 65.7384 618.048 63.0078 618.048C61.6424 618.048 60.5011 618.549 59.5838 619.552C58.6878 620.533 58.2398 621.941 58.2398 623.776V632H55.5518ZM81.0003 632.384C79.4856 632.384 78.1416 632.043 76.9683 631.36C75.7949 630.656 74.8669 629.685 74.1843 628.448C73.5229 627.211 73.1923 625.749 73.1923 624.064C73.1923 622.4 73.5229 620.949 74.1843 619.712C74.8456 618.453 75.7629 617.483 76.9363 616.8C78.1309 616.096 79.5069 615.744 81.0642 615.744C82.6003 615.744 83.9229 616.096 85.0323 616.8C86.1629 617.483 87.0269 618.389 87.6243 619.52C88.2216 620.651 88.5203 621.867 88.5203 623.168C88.5203 623.403 88.5096 623.637 88.4883 623.872C88.4883 624.107 88.4883 624.373 88.4883 624.672H75.8483C75.9123 625.888 76.1896 626.901 76.6803 627.712C77.1923 628.501 77.8216 629.099 78.5683 629.504C79.3363 629.909 80.1469 630.112 81.0003 630.112C82.1096 630.112 83.0376 629.856 83.7843 629.344C84.5309 628.832 85.0749 628.139 85.4163 627.264H88.0723C87.6456 628.736 86.8243 629.963 85.6083 630.944C84.4136 631.904 82.8776 632.384 81.0003 632.384ZM81.0003 618.016C79.7203 618.016 78.5789 618.411 77.5763 619.2C76.5949 619.968 76.0296 621.099 75.8802 622.592H85.8643C85.8003 621.163 85.3096 620.043 84.3923 619.232C83.4749 618.421 82.3443 618.016 81.0003 618.016Z" fill="#221517"/>
<path d="M1256.57 27V4.284H1249.04V1.8H1267.12V4.284H1259.59V27H1256.57ZM1272.46 5.184C1271.86 5.184 1271.36 4.992 1270.95 4.608C1270.57 4.2 1270.38 3.696 1270.38 3.096C1270.38 2.52 1270.57 2.04 1270.95 1.656C1271.36 1.272 1271.86 1.08 1272.46 1.08C1273.04 1.08 1273.53 1.272 1273.94 1.656C1274.35 2.04 1274.55 2.52 1274.55 3.096C1274.55 3.696 1274.35 4.2 1273.94 4.608C1273.53 4.992 1273.04 5.184 1272.46 5.184ZM1270.95 27V9.144H1273.98V27H1270.95ZM1279.24 27V1.08H1282.27V12.204C1282.87 11.1 1283.72 10.248 1284.82 9.648C1285.93 9.024 1287.13 8.712 1288.42 8.712C1290.49 8.712 1292.14 9.36 1293.39 10.656C1294.64 11.928 1295.26 13.896 1295.26 16.56V27H1292.27V16.884C1292.27 13.164 1290.77 11.304 1287.77 11.304C1286.21 11.304 1284.91 11.868 1283.85 12.996C1282.79 14.1 1282.27 15.684 1282.27 17.748V27H1279.24ZM1306.9 27C1305.27 27 1303.98 26.604 1303.05 25.812C1302.11 25.02 1301.64 23.592 1301.64 21.528V11.7H1298.55V9.144H1301.64L1302.04 4.86H1304.67V9.144H1309.92V11.7H1304.67V21.528C1304.67 22.656 1304.9 23.424 1305.35 23.832C1305.81 24.216 1306.61 24.408 1307.76 24.408H1309.64V27H1306.9ZM1315.6 5.184C1315 5.184 1314.5 4.992 1314.09 4.608C1313.71 4.2 1313.51 3.696 1313.51 3.096C1313.51 2.52 1313.71 2.04 1314.09 1.656C1314.5 1.272 1315 1.08 1315.6 1.08C1316.18 1.08 1316.67 1.272 1317.08 1.656C1317.49 2.04 1317.69 2.52 1317.69 3.096C1317.69 3.696 1317.49 4.2 1317.08 4.608C1316.67 4.992 1316.18 5.184 1315.6 5.184ZM1314.09 27V9.144H1317.11V27H1314.09Z" fill="#221517"/>
<path d="M897.368 26V3.6H900.504L908.568 19.216L916.568 3.6H919.736V26H917.048V8.4L909.56 22.8H907.544L900.056 8.432V26H897.368ZM931.534 26.384C930.04 26.384 928.696 26.0427 927.502 25.36C926.307 24.6773 925.358 23.7173 924.654 22.48C923.971 21.2213 923.63 19.7493 923.63 18.064C923.63 16.3787 923.982 14.9173 924.686 13.68C925.39 12.4213 926.339 11.4507 927.534 10.768C928.75 10.0853 930.104 9.744 931.598 9.744C933.091 9.744 934.435 10.0853 935.63 10.768C936.824 11.4507 937.763 12.4213 938.446 13.68C939.15 14.9173 939.502 16.3787 939.502 18.064C939.502 19.7493 939.15 21.2213 938.446 22.48C937.742 23.7173 936.782 24.6773 935.566 25.36C934.371 26.0427 933.027 26.384 931.534 26.384ZM931.534 24.08C932.451 24.08 933.304 23.856 934.094 23.408C934.883 22.96 935.523 22.288 936.014 21.392C936.504 20.496 936.75 19.3867 936.75 18.064C936.75 16.7413 936.504 15.632 936.014 14.736C935.544 13.84 934.915 13.168 934.126 12.72C933.336 12.272 932.494 12.048 931.598 12.048C930.68 12.048 929.827 12.272 929.038 12.72C928.248 13.168 927.608 13.84 927.118 14.736C926.627 15.632 926.382 16.7413 926.382 18.064C926.382 19.3867 926.627 20.496 927.118 21.392C927.608 22.288 928.238 22.96 929.006 23.408C929.795 23.856 930.638 24.08 931.534 24.08ZM933.358 8.336C932.782 8.336 932.302 8.208 931.918 7.952C931.555 7.696 931.203 7.45067 930.862 7.216C930.52 6.96 930.136 6.832 929.71 6.832C928.92 6.832 928.462 7.312 928.334 8.272H926.766C926.915 7.184 927.256 6.37333 927.79 5.84C928.344 5.30667 929.016 5.04 929.806 5.04C930.382 5.04 930.851 5.168 931.214 5.424C931.598 5.68 931.96 5.936 932.302 6.192C932.643 6.42667 933.038 6.544 933.486 6.544C933.848 6.544 934.158 6.42667 934.414 6.192C934.67 5.95733 934.83 5.59466 934.894 5.104H936.43C936.323 6.14933 935.982 6.94933 935.406 7.504C934.851 8.05867 934.168 8.336 933.358 8.336ZM943.239 26V10.128H945.671L945.831 12.976C946.343 11.9733 947.079 11.184 948.039 10.608C948.999 10.032 950.087 9.744 951.303 9.744C953.181 9.744 954.674 10.32 955.783 11.472C956.914 12.6027 957.479 14.352 957.479 16.72V26H954.791V17.008C954.791 13.7013 953.426 12.048 950.695 12.048C949.33 12.048 948.189 12.5493 947.271 13.552C946.375 14.5333 945.927 15.9413 945.927 17.776V26H943.239ZM968.688 26.384C967.173 26.384 965.829 26.0427 964.656 25.36C963.482 24.656 962.554 23.6853 961.872 22.448C961.21 21.2107 960.88 19.7493 960.88 18.064C960.88 16.4 961.21 14.9493 961.872 13.712C962.533 12.4533 963.45 11.4827 964.624 10.8C965.818 10.096 967.194 9.744 968.752 9.744C970.288 9.744 971.61 10.096 972.72 10.8C973.85 11.4827 974.714 12.3893 975.312 13.52C975.909 14.6507 976.208 15.8667 976.208 17.168C976.208 17.4027 976.197 17.6373 976.176 17.872C976.176 18.1067 976.176 18.3733 976.176 18.672H963.536C963.6 19.888 963.877 20.9013 964.368 21.712C964.88 22.5013 965.509 23.0987 966.256 23.504C967.024 23.9093 967.834 24.112 968.688 24.112C969.797 24.112 970.725 23.856 971.472 23.344C972.218 22.832 972.762 22.1387 973.104 21.264H975.76C975.333 22.736 974.512 23.9627 973.296 24.944C972.101 25.904 970.565 26.384 968.688 26.384ZM968.688 12.016C967.408 12.016 966.266 12.4107 965.264 13.2C964.282 13.968 963.717 15.0987 963.568 16.592H973.552C973.488 15.1627 972.997 14.0427 972.08 13.232C971.162 12.4213 970.032 12.016 968.688 12.016ZM986.97 26.384C985.392 26.384 984.005 26.0213 982.811 25.296C981.637 24.5707 980.72 23.5787 980.059 22.32C979.419 21.0613 979.099 19.632 979.099 18.032C979.099 16.432 979.429 15.0133 980.091 13.776C980.752 12.5173 981.669 11.536 982.843 10.832C984.016 10.1067 985.403 9.744 987.003 9.744C988.304 9.744 989.456 10.0107 990.459 10.544C991.461 11.0773 992.24 11.824 992.795 12.784V2.96H995.483V26H993.051L992.795 23.376C992.283 24.144 991.547 24.8373 990.587 25.456C989.627 26.0747 988.421 26.384 986.97 26.384ZM987.259 24.048C988.325 24.048 989.264 23.8027 990.075 23.312C990.907 22.8 991.547 22.096 991.995 21.2C992.464 20.304 992.699 19.2587 992.699 18.064C992.699 16.8693 992.464 15.824 991.995 14.928C991.547 14.032 990.907 13.3387 990.075 12.848C989.264 12.336 988.325 12.08 987.259 12.08C986.213 12.08 985.275 12.336 984.443 12.848C983.632 13.3387 982.992 14.032 982.523 14.928C982.075 15.824 981.851 16.8693 981.851 18.064C981.851 19.2587 982.075 20.304 982.523 21.2C982.992 22.096 983.632 22.8 984.443 23.312C985.275 23.8027 986.213 24.048 987.259 24.048ZM1008.33 26V2.96H1011.02V16.816L1017.52 10.128H1020.81L1013.77 17.296L1021.71 26H1018.29L1011.02 17.776V26H1008.33ZM1030.53 26.384C1029.04 26.384 1027.7 26.0427 1026.5 25.36C1025.31 24.6773 1024.36 23.7173 1023.65 22.48C1022.97 21.2213 1022.63 19.7493 1022.63 18.064C1022.63 16.3787 1022.98 14.9173 1023.69 13.68C1024.39 12.4213 1025.34 11.4507 1026.53 10.768C1027.75 10.0853 1029.1 9.744 1030.6 9.744C1032.09 9.744 1033.44 10.0853 1034.63 10.768C1035.82 11.4507 1036.76 12.4213 1037.45 13.68C1038.15 14.9173 1038.5 16.3787 1038.5 18.064C1038.5 19.7493 1038.15 21.2213 1037.45 22.48C1036.74 23.7173 1035.78 24.6773 1034.57 25.36C1033.37 26.0427 1032.03 26.384 1030.53 26.384ZM1030.53 24.08C1031.45 24.08 1032.3 23.856 1033.09 23.408C1033.88 22.96 1034.52 22.288 1035.01 21.392C1035.5 20.496 1035.75 19.3867 1035.75 18.064C1035.75 16.7413 1035.5 15.632 1035.01 14.736C1034.54 13.84 1033.92 13.168 1033.13 12.72C1032.34 12.272 1031.49 12.048 1030.6 12.048C1029.68 12.048 1028.83 12.272 1028.04 12.72C1027.25 13.168 1026.61 13.84 1026.12 14.736C1025.63 15.632 1025.38 16.7413 1025.38 18.064C1025.38 19.3867 1025.63 20.496 1026.12 21.392C1026.61 22.288 1027.24 22.96 1028.01 23.408C1028.8 23.856 1029.64 24.08 1030.53 24.08ZM1042.24 26V10.128H1044.67L1044.9 13.168C1045.39 12.1227 1046.13 11.2907 1047.14 10.672C1048.14 10.0533 1049.38 9.744 1050.85 9.744V12.56H1050.11C1049.17 12.56 1048.31 12.7307 1047.52 13.072C1046.73 13.392 1046.1 13.9467 1045.63 14.736C1045.16 15.5253 1044.93 16.6133 1044.93 18V26H1042.24ZM1053.86 26V10.128H1056.3L1056.52 13.168C1057.01 12.1227 1057.76 11.2907 1058.76 10.672C1059.76 10.0533 1061 9.744 1062.47 9.744V12.56H1061.74C1060.8 12.56 1059.93 12.7307 1059.14 13.072C1058.35 13.392 1057.73 13.9467 1057.26 14.736C1056.79 15.5253 1056.55 16.6133 1056.55 18V26H1053.86ZM1070.77 26.384C1069.45 26.384 1068.35 26.16 1067.47 25.712C1066.6 25.264 1065.95 24.6667 1065.52 23.92C1065.09 23.1733 1064.88 22.3627 1064.88 21.488C1064.88 19.8667 1065.5 18.6187 1066.74 17.744C1067.97 16.8693 1069.66 16.432 1071.79 16.432H1076.08V16.24C1076.08 14.8533 1075.72 13.808 1074.99 13.104C1074.27 12.3787 1073.3 12.016 1072.08 12.016C1071.04 12.016 1070.13 12.2827 1069.36 12.816C1068.61 13.328 1068.15 14.0853 1067.95 15.088H1065.2C1065.31 13.936 1065.69 12.9653 1066.35 12.176C1067.04 11.3867 1067.88 10.7893 1068.88 10.384C1069.88 9.95733 1070.95 9.744 1072.08 9.744C1074.3 9.744 1075.96 10.3413 1077.07 11.536C1078.2 12.7093 1078.77 14.2773 1078.77 16.24V26H1076.37L1076.21 23.152C1075.76 24.048 1075.1 24.816 1074.23 25.456C1073.37 26.0747 1072.22 26.384 1070.77 26.384ZM1071.19 24.112C1072.21 24.112 1073.08 23.8453 1073.81 23.312C1074.56 22.7787 1075.12 22.0853 1075.51 21.232C1075.89 20.3787 1076.08 19.4827 1076.08 18.544V18.512H1072.02C1070.44 18.512 1069.32 18.7893 1068.66 19.344C1068.02 19.8773 1067.7 20.5493 1067.7 21.36C1067.7 22.192 1068 22.864 1068.59 23.376C1069.21 23.8667 1070.08 24.112 1071.19 24.112ZM1090 26.384C1088.42 26.384 1087.04 26.0213 1085.84 25.296C1084.67 24.5707 1083.75 23.5787 1083.09 22.32C1082.45 21.0613 1082.13 19.632 1082.13 18.032C1082.13 16.432 1082.46 15.0133 1083.12 13.776C1083.78 12.5173 1084.7 11.536 1085.87 10.832C1087.05 10.1067 1088.43 9.744 1090.03 9.744C1091.34 9.744 1092.49 10.0107 1093.49 10.544C1094.49 11.0773 1095.27 11.824 1095.83 12.784V2.96H1098.51V26H1096.08L1095.83 23.376C1095.31 24.144 1094.58 24.8373 1093.62 25.456C1092.66 26.0747 1091.45 26.384 1090 26.384ZM1090.29 24.048C1091.36 24.048 1092.3 23.8027 1093.11 23.312C1093.94 22.8 1094.58 22.096 1095.03 21.2C1095.5 20.304 1095.73 19.2587 1095.73 18.064C1095.73 16.8693 1095.5 15.824 1095.03 14.928C1094.58 14.032 1093.94 13.3387 1093.11 12.848C1092.3 12.336 1091.36 12.08 1090.29 12.08C1089.24 12.08 1088.31 12.336 1087.47 12.848C1086.66 13.3387 1086.02 14.032 1085.55 14.928C1085.11 15.824 1084.88 16.8693 1084.88 18.064C1084.88 19.2587 1085.11 20.304 1085.55 21.2C1086.02 22.096 1086.66 22.8 1087.47 23.312C1088.31 23.8027 1089.24 24.048 1090.29 24.048Z" fill="#221517"/>
<path d="M666.368 26V3.6H669.056V13.488H680.672V3.6H683.36V26H680.672V15.696H669.056V26H666.368ZM693.207 26.384C691.884 26.384 690.785 26.16 689.911 25.712C689.036 25.264 688.385 24.6667 687.959 23.92C687.532 23.1733 687.319 22.3627 687.319 21.488C687.319 19.8667 687.937 18.6187 689.175 17.744C690.412 16.8693 692.097 16.432 694.231 16.432H698.519V16.24C698.519 14.8533 698.156 13.808 697.431 13.104C696.705 12.3787 695.735 12.016 694.519 12.016C693.473 12.016 692.567 12.2827 691.799 12.816C691.052 13.328 690.583 14.0853 690.391 15.088H687.639C687.745 13.936 688.129 12.9653 688.791 12.176C689.473 11.3867 690.316 10.7893 691.319 10.384C692.321 9.95733 693.388 9.744 694.519 9.744C696.737 9.744 698.401 10.3413 699.511 11.536C700.641 12.7093 701.207 14.2773 701.207 16.24V26H698.807L698.647 23.152C698.199 24.048 697.537 24.816 696.663 25.456C695.809 26.0747 694.657 26.384 693.207 26.384ZM693.623 24.112C694.647 24.112 695.521 23.8453 696.247 23.312C696.993 22.7787 697.559 22.0853 697.943 21.232C698.327 20.3787 698.519 19.4827 698.519 18.544V18.512H694.455C692.876 18.512 691.756 18.7893 691.095 19.344C690.455 19.8773 690.135 20.5493 690.135 21.36C690.135 22.192 690.433 22.864 691.031 23.376C691.649 23.8667 692.513 24.112 693.623 24.112ZM705.239 26V10.128H707.671L707.895 13.168C708.386 12.1227 709.133 11.2907 710.135 10.672C711.138 10.0533 712.375 9.744 713.847 9.744V12.56H713.111C712.173 12.56 711.309 12.7307 710.519 13.072C709.73 13.392 709.101 13.9467 708.631 14.736C708.162 15.5253 707.927 16.6133 707.927 18V26H705.239ZM721.44 26L715.424 10.128H718.24L723.008 23.408L727.808 10.128H730.56L724.544 26H721.44ZM738.019 26.384C736.697 26.384 735.598 26.16 734.723 25.712C733.849 25.264 733.198 24.6667 732.771 23.92C732.345 23.1733 732.131 22.3627 732.131 21.488C732.131 19.8667 732.75 18.6187 733.987 17.744C735.225 16.8693 736.91 16.432 739.043 16.432H743.331V16.24C743.331 14.8533 742.969 13.808 742.243 13.104C741.518 12.3787 740.547 12.016 739.331 12.016C738.286 12.016 737.379 12.2827 736.611 12.816C735.865 13.328 735.395 14.0853 735.203 15.088H732.451C732.558 13.936 732.942 12.9653 733.603 12.176C734.286 11.3867 735.129 10.7893 736.131 10.384C737.134 9.95733 738.201 9.744 739.331 9.744C741.55 9.744 743.214 10.3413 744.323 11.536C745.454 12.7093 746.019 14.2773 746.019 16.24V26H743.619L743.459 23.152C743.011 24.048 742.35 24.816 741.475 25.456C740.622 26.0747 739.47 26.384 738.019 26.384ZM738.435 24.112C739.459 24.112 740.334 23.8453 741.059 23.312C741.806 22.7787 742.371 22.0853 742.755 21.232C743.139 20.3787 743.331 19.4827 743.331 18.544V18.512H739.267C737.689 18.512 736.569 18.7893 735.907 19.344C735.267 19.8773 734.947 20.5493 734.947 21.36C734.947 22.192 735.246 22.864 735.843 23.376C736.462 23.8667 737.326 24.112 738.435 24.112Z" fill="#221517"/>
<path d="M370 58L370 654" stroke="#96897C" stroke-linecap="round" stroke-linejoin="round"/>
<path d="M706 58V654" stroke="#96897C" stroke-linecap="round" stroke-linejoin="round"/>
<path d="M998 58V654" stroke="#96897C" stroke-linecap="round" stroke-linejoin="round"/>
<path d="M1284 58L1284 654" stroke="#96897C" stroke-linecap="round" stroke-linejoin="round"/>
<path d="M362 99H1286" stroke="#61131D" stroke-width="16" stroke-linecap="round" stroke-linejoin="round"/>
<path d="M359 186H1137" stroke="#61131D" stroke-width="16" stroke-linecap="round" stroke-linejoin="round"/>
<path d="M359 273H1088" stroke="#61131D" stroke-width="16" stroke-linecap="round" stroke-linejoin="round"/>
<path d="M359 360H748" stroke="#61131D" stroke-width="16" stroke-linecap="round" stroke-linejoin="round"/>
<path d="M359 447H1118" stroke="#61131D" stroke-width="16" stroke-linecap="round" stroke-linejoin="round"/>
<path d="M359 534H1187" stroke="#61131D" stroke-width="16" stroke-linecap="round" stroke-linejoin="round"/>
<path d="M359 621H774" stroke="#61131D" stroke-width="16" stroke-linecap="round" stroke-linejoin="round"/>
</svg>
