<svg width="379" height="393" viewBox="0 0 379 393" fill="none" xmlns="http://www.w3.org/2000/svg">
<path d="M1.184 45V33.8H8V34.904H2.528V38.84H7.184V39.928H2.528V45H1.184ZM10.4669 35.304C10.2002 35.304 9.97621 35.2187 9.79488 35.048C9.62421 34.8667 9.53888 34.6427 9.53888 34.376C9.53888 34.12 9.62421 33.9067 9.79488 33.736C9.97621 33.5653 10.2002 33.48 10.4669 33.48C10.7229 33.48 10.9415 33.5653 11.1229 33.736C11.3042 33.9067 11.3949 34.12 11.3949 34.376C11.3949 34.6427 11.3042 34.8667 11.1229 35.048C10.9415 35.2187 10.7229 35.304 10.4669 35.304ZM9.79488 45V37.064H11.1389V45H9.79488ZM16.615 42.504C16.167 42.504 15.7563 42.4453 15.383 42.328L14.583 43.08C14.7003 43.1653 14.8443 43.24 15.015 43.304C15.1963 43.3573 15.4523 43.4107 15.783 43.464C16.1137 43.5067 16.5777 43.5547 17.175 43.608C18.2417 43.6827 19.0043 43.928 19.463 44.344C19.9217 44.76 20.151 45.304 20.151 45.976C20.151 46.4347 20.023 46.872 19.767 47.288C19.5217 47.704 19.1377 48.0453 18.615 48.312C18.103 48.5787 17.4417 48.712 16.631 48.712C15.9163 48.712 15.2817 48.616 14.727 48.424C14.1723 48.2427 13.7403 47.96 13.431 47.576C13.1217 47.2027 12.967 46.728 12.967 46.152C12.967 45.8533 13.047 45.528 13.207 45.176C13.367 44.8347 13.6657 44.5093 14.103 44.2C13.8683 44.104 13.6657 44.0027 13.495 43.896C13.335 43.7787 13.1857 43.6507 13.047 43.512V43.144L14.407 41.8C13.7777 41.2667 13.463 40.5627 13.463 39.688C13.463 39.1653 13.5857 38.6907 13.831 38.264C14.0763 37.8373 14.4337 37.5013 14.903 37.256C15.3723 37 15.943 36.872 16.615 36.872C17.0737 36.872 17.4897 36.936 17.863 37.064H20.791V38.072L19.303 38.136C19.6123 38.584 19.767 39.1013 19.767 39.688C19.767 40.2107 19.639 40.6853 19.383 41.112C19.1377 41.5387 18.7803 41.88 18.311 42.136C17.8523 42.3813 17.287 42.504 16.615 42.504ZM16.615 41.4C17.1803 41.4 17.6283 41.256 17.959 40.968C18.3003 40.6693 18.471 40.2427 18.471 39.688C18.471 39.144 18.3003 38.728 17.959 38.44C17.6283 38.1413 17.1803 37.992 16.615 37.992C16.039 37.992 15.5803 38.1413 15.239 38.44C14.9083 38.728 14.743 39.144 14.743 39.688C14.743 40.2427 14.9083 40.6693 15.239 40.968C15.5803 41.256 16.039 41.4 16.615 41.4ZM14.279 46.024C14.279 46.5573 14.503 46.952 14.951 47.208C15.399 47.4747 15.959 47.608 16.631 47.608C17.2923 47.608 17.8203 47.464 18.215 47.176C18.6203 46.888 18.823 46.504 18.823 46.024C18.823 45.6827 18.6843 45.384 18.407 45.128C18.1297 44.8827 17.6177 44.7387 16.871 44.696C16.2843 44.6533 15.7777 44.6 15.351 44.536C14.9137 44.7707 14.6257 45.0213 14.487 45.288C14.3483 45.5653 14.279 45.8107 14.279 46.024ZM22.3071 45V37.064H23.5231L23.6191 38.216C23.8751 37.7893 24.2165 37.4587 24.6431 37.224C25.0698 36.9893 25.5498 36.872 26.0831 36.872C26.7125 36.872 27.2511 37 27.6991 37.256C28.1578 37.512 28.5098 37.9013 28.7551 38.424C29.0325 37.944 29.4111 37.5653 29.8911 37.288C30.3818 37.0107 30.9098 36.872 31.4751 36.872C32.4245 36.872 33.1818 37.16 33.7471 37.736C34.3125 38.3013 34.5951 39.176 34.5951 40.36V45H33.2671V40.504C33.2671 39.6827 33.1018 39.064 32.7711 38.648C32.4405 38.232 31.9658 38.024 31.3471 38.024C30.7071 38.024 30.1738 38.2747 29.7471 38.776C29.3311 39.2667 29.1231 39.9707 29.1231 40.888V45H27.7791V40.504C27.7791 39.6827 27.6138 39.064 27.2831 38.648C26.9525 38.232 26.4778 38.024 25.8591 38.024C25.2298 38.024 24.7018 38.2747 24.2751 38.776C23.8591 39.2667 23.6511 39.9707 23.6511 40.888V45H22.3071ZM39.2596 45.192C38.5983 45.192 38.049 45.08 37.6116 44.856C37.1743 44.632 36.849 44.3333 36.6356 43.96C36.4223 43.5867 36.3156 43.1813 36.3156 42.744C36.3156 41.9333 36.625 41.3093 37.2436 40.872C37.8623 40.4347 38.705 40.216 39.7716 40.216H41.9156V40.12C41.9156 39.4267 41.7343 38.904 41.3716 38.552C41.009 38.1893 40.5236 38.008 39.9156 38.008C39.393 38.008 38.9396 38.1413 38.5556 38.408C38.1823 38.664 37.9476 39.0427 37.8516 39.544H36.4756C36.529 38.968 36.721 38.4827 37.0516 38.088C37.393 37.6933 37.8143 37.3947 38.3156 37.192C38.817 36.9787 39.3503 36.872 39.9156 36.872C41.025 36.872 41.857 37.1707 42.4116 37.768C42.977 38.3547 43.2596 39.1387 43.2596 40.12V45H42.0596L41.9796 43.576C41.7556 44.024 41.425 44.408 40.9876 44.728C40.561 45.0373 39.985 45.192 39.2596 45.192ZM39.4676 44.056C39.9796 44.056 40.417 43.9227 40.7796 43.656C41.153 43.3893 41.4356 43.0427 41.6276 42.616C41.8196 42.1893 41.9156 41.7413 41.9156 41.272V41.256H39.8836C39.0943 41.256 38.5343 41.3947 38.2036 41.672C37.8836 41.9387 37.7236 42.2747 37.7236 42.68C37.7236 43.096 37.873 43.432 38.1716 43.688C38.481 43.9333 38.913 44.056 39.4676 44.056Z" fill="#221517"/>
<path d="M0.48 93L4.608 81.8H6.032L10.144 93H8.72L7.696 90.12H2.928L1.888 93H0.48ZM3.328 89.032H7.296L5.312 83.496L3.328 89.032ZM14.8915 93.192C14.1022 93.192 13.4088 93.0107 12.8115 92.648C12.2248 92.2853 11.7662 91.7893 11.4355 91.16C11.1155 90.5307 10.9555 89.816 10.9555 89.016C10.9555 88.216 11.1208 87.5067 11.4515 86.888C11.7822 86.2587 12.2408 85.768 12.8275 85.416C13.4142 85.0533 14.1075 84.872 14.9075 84.872C15.5582 84.872 16.1342 85.0053 16.6355 85.272C17.1368 85.5387 17.5262 85.912 17.8035 86.392V81.48H19.1475V93H17.9315L17.8035 91.688C17.5475 92.072 17.1795 92.4187 16.6995 92.728C16.2195 93.0373 15.6168 93.192 14.8915 93.192ZM15.0355 92.024C15.5688 92.024 16.0382 91.9013 16.4435 91.656C16.8595 91.4 17.1795 91.048 17.4035 90.6C17.6382 90.152 17.7555 89.6293 17.7555 89.032C17.7555 88.4347 17.6382 87.912 17.4035 87.464C17.1795 87.016 16.8595 86.6693 16.4435 86.424C16.0382 86.168 15.5688 86.04 15.0355 86.04C14.5128 86.04 14.0435 86.168 13.6275 86.424C13.2222 86.6693 12.9022 87.016 12.6675 87.464C12.4435 87.912 12.3315 88.4347 12.3315 89.032C12.3315 89.6293 12.4435 90.152 12.6675 90.6C12.9022 91.048 13.2222 91.4 13.6275 91.656C14.0435 91.9013 14.5128 92.024 15.0355 92.024ZM24.9544 93.192C24.2077 93.192 23.5357 93.0213 22.9384 92.68C22.341 92.3387 21.8664 91.8587 21.5144 91.24C21.173 90.6107 21.0024 89.8747 21.0024 89.032C21.0024 88.1893 21.1784 87.4587 21.5304 86.84C21.8824 86.2107 22.357 85.7253 22.9544 85.384C23.5624 85.0427 24.2397 84.872 24.9864 84.872C25.733 84.872 26.405 85.0427 27.0024 85.384C27.5997 85.7253 28.069 86.2107 28.4104 86.84C28.7624 87.4587 28.9384 88.1893 28.9384 89.032C28.9384 89.8747 28.7624 90.6107 28.4104 91.24C28.0584 91.8587 27.5784 92.3387 26.9704 92.68C26.373 93.0213 25.701 93.192 24.9544 93.192ZM24.9544 92.04C25.413 92.04 25.8397 91.928 26.2344 91.704C26.629 91.48 26.949 91.144 27.1944 90.696C27.4397 90.248 27.5624 89.6933 27.5624 89.032C27.5624 88.3707 27.4397 87.816 27.1944 87.368C26.9597 86.92 26.645 86.584 26.2504 86.36C25.8557 86.136 25.4344 86.024 24.9864 86.024C24.5277 86.024 24.101 86.136 23.7064 86.36C23.3117 86.584 22.9917 86.92 22.7464 87.368C22.501 87.816 22.3784 88.3707 22.3784 89.032C22.3784 89.6933 22.501 90.248 22.7464 90.696C22.9917 91.144 23.3064 91.48 23.6904 91.704C24.085 91.928 24.5064 92.04 24.9544 92.04ZM35.0471 93.192C34.3965 93.192 33.8151 93.0587 33.3031 92.792C32.8018 92.5253 32.4178 92.152 32.1511 91.672L32.0231 93H30.8071V81.48H32.1511V86.376C32.4071 85.992 32.7698 85.6453 33.2391 85.336C33.7191 85.0267 34.3271 84.872 35.0631 84.872C35.8525 84.872 36.5405 85.0533 37.1271 85.416C37.7138 85.7787 38.1671 86.2747 38.4871 86.904C38.8178 87.5333 38.9831 88.248 38.9831 89.048C38.9831 89.848 38.8178 90.5627 38.4871 91.192C38.1671 91.8107 37.7085 92.3013 37.1111 92.664C36.5245 93.016 35.8365 93.192 35.0471 93.192ZM34.9031 92.024C35.4365 92.024 35.9058 91.9013 36.3111 91.656C36.7165 91.4 37.0365 91.048 37.2711 90.6C37.5058 90.152 37.6231 89.6293 37.6231 89.032C37.6231 88.4347 37.5058 87.912 37.2711 87.464C37.0365 87.016 36.7165 86.6693 36.3111 86.424C35.9058 86.168 35.4365 86.04 34.9031 86.04C34.3698 86.04 33.9005 86.168 33.4951 86.424C33.0898 86.6693 32.7698 87.016 32.5351 87.464C32.3005 87.912 32.1831 88.4347 32.1831 89.032C32.1831 89.6293 32.3005 90.152 32.5351 90.6C32.7698 91.048 33.0898 91.4 33.4951 91.656C33.9005 91.9013 34.3698 92.024 34.9031 92.024ZM44.422 93.192C43.6647 93.192 42.9927 93.0213 42.406 92.68C41.8193 92.328 41.3553 91.8427 41.014 91.224C40.6833 90.6053 40.518 89.8747 40.518 89.032C40.518 88.2 40.6833 87.4747 41.014 86.856C41.3447 86.2267 41.8033 85.7413 42.39 85.4C42.9873 85.048 43.6753 84.872 44.454 84.872C45.222 84.872 45.8833 85.048 46.438 85.4C47.0033 85.7413 47.4353 86.1947 47.734 86.76C48.0327 87.3253 48.182 87.9333 48.182 88.584C48.182 88.7013 48.1767 88.8187 48.166 88.936C48.166 89.0533 48.166 89.1867 48.166 89.336H41.846C41.878 89.944 42.0167 90.4507 42.262 90.856C42.518 91.2507 42.8327 91.5493 43.206 91.752C43.59 91.9547 43.9953 92.056 44.422 92.056C44.9767 92.056 45.4407 91.928 45.814 91.672C46.1873 91.416 46.4593 91.0693 46.63 90.632H47.958C47.7447 91.368 47.334 91.9813 46.726 92.472C46.1287 92.952 45.3607 93.192 44.422 93.192ZM44.422 86.008C43.782 86.008 43.2113 86.2053 42.71 86.6C42.2193 86.984 41.9367 87.5493 41.862 88.296H46.854C46.822 87.5813 46.5767 87.0213 46.118 86.616C45.6593 86.2107 45.094 86.008 44.422 86.008ZM1.184 109V97.8H2.528V109H1.184ZM4.82275 109V97.48H6.16675V109H4.82275ZM8.36963 109V97.48H9.71363V109H8.36963ZM14.8125 109.192C13.8738 109.192 13.1272 108.909 12.5725 108.344C12.0178 107.768 11.7405 106.888 11.7405 105.704V101.064H13.0845V105.56C13.0845 107.213 13.7618 108.04 15.1165 108.04C15.8098 108.04 16.3805 107.795 16.8285 107.304C17.2872 106.803 17.5165 106.093 17.5165 105.176V101.064H18.8605V109H17.6445L17.5485 107.576C17.3032 108.077 16.9352 108.472 16.4445 108.76C15.9645 109.048 15.4205 109.192 14.8125 109.192ZM24.1128 109.192C23.1634 109.192 22.3741 108.952 21.7448 108.472C21.1154 107.992 20.7474 107.341 20.6408 106.52H22.0168C22.1021 106.936 22.3208 107.299 22.6728 107.608C23.0354 107.907 23.5208 108.056 24.1288 108.056C24.6941 108.056 25.1101 107.939 25.3768 107.704C25.6434 107.459 25.7768 107.171 25.7768 106.84C25.7768 106.36 25.6008 106.04 25.2488 105.88C24.9074 105.72 24.4221 105.576 23.7928 105.448C23.3661 105.363 22.9394 105.24 22.5128 105.08C22.0861 104.92 21.7288 104.696 21.4408 104.408C21.1528 104.109 21.0088 103.72 21.0088 103.24C21.0088 102.547 21.2648 101.981 21.7768 101.544C22.2994 101.096 23.0034 100.872 23.8888 100.872C24.7314 100.872 25.4194 101.085 25.9528 101.512C26.4968 101.928 26.8114 102.525 26.8968 103.304H25.5688C25.5154 102.899 25.3394 102.584 25.0408 102.36C24.7528 102.125 24.3634 102.008 23.8728 102.008C23.3928 102.008 23.0194 102.109 22.7528 102.312C22.4968 102.515 22.3688 102.781 22.3688 103.112C22.3688 103.432 22.5341 103.683 22.8648 103.864C23.2061 104.045 23.6648 104.2 24.2408 104.328C24.7314 104.435 25.1954 104.568 25.6328 104.728C26.0808 104.877 26.4434 105.107 26.7208 105.416C27.0088 105.715 27.1528 106.152 27.1528 106.728C27.1634 107.443 26.8914 108.035 26.3368 108.504C25.7928 108.963 25.0514 109.192 24.1128 109.192ZM31.8494 109C31.124 109 30.5534 108.824 30.1374 108.472C29.7214 108.12 29.5134 107.485 29.5134 106.568V102.2H28.1374V101.064H29.5134L29.6894 99.16H30.8574V101.064H33.1934V102.2H30.8574V106.568C30.8574 107.069 30.9587 107.411 31.1614 107.592C31.364 107.763 31.7214 107.848 32.2334 107.848H33.0654V109H31.8494ZM34.9009 109V101.064H36.1169L36.2289 102.584C36.4742 102.061 36.8475 101.645 37.3489 101.336C37.8502 101.027 38.4689 100.872 39.2049 100.872V102.28H38.8369C38.3675 102.28 37.9355 102.365 37.5409 102.536C37.1462 102.696 36.8315 102.973 36.5969 103.368C36.3622 103.763 36.2449 104.307 36.2449 105V109H34.9009ZM43.3534 109.192C42.692 109.192 42.1427 109.08 41.7054 108.856C41.268 108.632 40.9427 108.333 40.7294 107.96C40.516 107.587 40.4094 107.181 40.4094 106.744C40.4094 105.933 40.7187 105.309 41.3374 104.872C41.956 104.435 42.7987 104.216 43.8654 104.216H46.0094V104.12C46.0094 103.427 45.828 102.904 45.4654 102.552C45.1027 102.189 44.6174 102.008 44.0094 102.008C43.4867 102.008 43.0334 102.141 42.6494 102.408C42.276 102.664 42.0414 103.043 41.9454 103.544H40.5694C40.6227 102.968 40.8147 102.483 41.1454 102.088C41.4867 101.693 41.908 101.395 42.4094 101.192C42.9107 100.979 43.444 100.872 44.0094 100.872C45.1187 100.872 45.9507 101.171 46.5054 101.768C47.0707 102.355 47.3534 103.139 47.3534 104.12V109H46.1534L46.0734 107.576C45.8494 108.024 45.5187 108.408 45.0814 108.728C44.6547 109.037 44.0787 109.192 43.3534 109.192ZM43.5614 108.056C44.0734 108.056 44.5107 107.923 44.8734 107.656C45.2467 107.389 45.5294 107.043 45.7214 106.616C45.9134 106.189 46.0094 105.741 46.0094 105.272V105.256H43.9774C43.188 105.256 42.628 105.395 42.2974 105.672C41.9774 105.939 41.8174 106.275 41.8174 106.68C41.8174 107.096 41.9667 107.432 42.2654 107.688C42.5747 107.933 43.0067 108.056 43.5614 108.056ZM52.2869 109C51.5615 109 50.9909 108.824 50.5749 108.472C50.1589 108.12 49.9509 107.485 49.9509 106.568V102.2H48.5749V101.064H49.9509L50.1269 99.16H51.2949V101.064H53.6309V102.2H51.2949V106.568C51.2949 107.069 51.3962 107.411 51.5989 107.592C51.8015 107.763 52.1589 107.848 52.6709 107.848H53.5029V109H52.2869ZM58.7356 109.192C57.989 109.192 57.317 109.021 56.7196 108.68C56.1223 108.339 55.6476 107.859 55.2956 107.24C54.9543 106.611 54.7836 105.875 54.7836 105.032C54.7836 104.189 54.9596 103.459 55.3116 102.84C55.6636 102.211 56.1383 101.725 56.7356 101.384C57.3436 101.043 58.021 100.872 58.7676 100.872C59.5143 100.872 60.1863 101.043 60.7836 101.384C61.381 101.725 61.8503 102.211 62.1916 102.84C62.5436 103.459 62.7196 104.189 62.7196 105.032C62.7196 105.875 62.5436 106.611 62.1916 107.24C61.8396 107.859 61.3596 108.339 60.7516 108.68C60.1543 109.021 59.4823 109.192 58.7356 109.192ZM58.7356 108.04C59.1943 108.04 59.621 107.928 60.0156 107.704C60.4103 107.48 60.7303 107.144 60.9756 106.696C61.221 106.248 61.3436 105.693 61.3436 105.032C61.3436 104.371 61.221 103.816 60.9756 103.368C60.741 102.92 60.4263 102.584 60.0316 102.36C59.637 102.136 59.2156 102.024 58.7676 102.024C58.309 102.024 57.8823 102.136 57.4876 102.36C57.093 102.584 56.773 102.92 56.5276 103.368C56.2823 103.816 56.1596 104.371 56.1596 105.032C56.1596 105.693 56.2823 106.248 56.5276 106.696C56.773 107.144 57.0876 107.48 57.4716 107.704C57.8663 107.928 58.2876 108.04 58.7356 108.04ZM64.5884 109V101.064H65.8044L65.9164 102.584C66.1617 102.061 66.535 101.645 67.0364 101.336C67.5377 101.027 68.1564 100.872 68.8924 100.872V102.28H68.5244C68.055 102.28 67.623 102.365 67.2284 102.536C66.8337 102.696 66.519 102.973 66.2844 103.368C66.0497 103.763 65.9324 104.307 65.9324 105V109H64.5884Z" fill="#221517"/>
<path d="M0.48 157L4.608 145.8H6.032L10.144 157H8.72L7.696 154.12H2.928L1.888 157H0.48ZM3.328 153.032H7.296L5.312 147.496L3.328 153.032ZM14.8915 157.192C14.1022 157.192 13.4088 157.011 12.8115 156.648C12.2248 156.285 11.7662 155.789 11.4355 155.16C11.1155 154.531 10.9555 153.816 10.9555 153.016C10.9555 152.216 11.1208 151.507 11.4515 150.888C11.7822 150.259 12.2408 149.768 12.8275 149.416C13.4142 149.053 14.1075 148.872 14.9075 148.872C15.5582 148.872 16.1342 149.005 16.6355 149.272C17.1368 149.539 17.5262 149.912 17.8035 150.392V145.48H19.1475V157H17.9315L17.8035 155.688C17.5475 156.072 17.1795 156.419 16.6995 156.728C16.2195 157.037 15.6168 157.192 14.8915 157.192ZM15.0355 156.024C15.5688 156.024 16.0382 155.901 16.4435 155.656C16.8595 155.4 17.1795 155.048 17.4035 154.6C17.6382 154.152 17.7555 153.629 17.7555 153.032C17.7555 152.435 17.6382 151.912 17.4035 151.464C17.1795 151.016 16.8595 150.669 16.4435 150.424C16.0382 150.168 15.5688 150.04 15.0355 150.04C14.5128 150.04 14.0435 150.168 13.6275 150.424C13.2222 150.669 12.9022 151.016 12.6675 151.464C12.4435 151.912 12.3315 152.435 12.3315 153.032C12.3315 153.629 12.4435 154.152 12.6675 154.6C12.9022 155.048 13.2222 155.4 13.6275 155.656C14.0435 155.901 14.5128 156.024 15.0355 156.024ZM24.9544 157.192C24.2077 157.192 23.5357 157.021 22.9384 156.68C22.341 156.339 21.8664 155.859 21.5144 155.24C21.173 154.611 21.0024 153.875 21.0024 153.032C21.0024 152.189 21.1784 151.459 21.5304 150.84C21.8824 150.211 22.357 149.725 22.9544 149.384C23.5624 149.043 24.2397 148.872 24.9864 148.872C25.733 148.872 26.405 149.043 27.0024 149.384C27.5997 149.725 28.069 150.211 28.4104 150.84C28.7624 151.459 28.9384 152.189 28.9384 153.032C28.9384 153.875 28.7624 154.611 28.4104 155.24C28.0584 155.859 27.5784 156.339 26.9704 156.68C26.373 157.021 25.701 157.192 24.9544 157.192ZM24.9544 156.04C25.413 156.04 25.8397 155.928 26.2344 155.704C26.629 155.48 26.949 155.144 27.1944 154.696C27.4397 154.248 27.5624 153.693 27.5624 153.032C27.5624 152.371 27.4397 151.816 27.1944 151.368C26.9597 150.92 26.645 150.584 26.2504 150.36C25.8557 150.136 25.4344 150.024 24.9864 150.024C24.5277 150.024 24.101 150.136 23.7064 150.36C23.3117 150.584 22.9917 150.92 22.7464 151.368C22.501 151.816 22.3784 152.371 22.3784 153.032C22.3784 153.693 22.501 154.248 22.7464 154.696C22.9917 155.144 23.3064 155.48 23.6904 155.704C24.085 155.928 24.5064 156.04 24.9544 156.04ZM35.0471 157.192C34.3965 157.192 33.8151 157.059 33.3031 156.792C32.8018 156.525 32.4178 156.152 32.1511 155.672L32.0231 157H30.8071V145.48H32.1511V150.376C32.4071 149.992 32.7698 149.645 33.2391 149.336C33.7191 149.027 34.3271 148.872 35.0631 148.872C35.8525 148.872 36.5405 149.053 37.1271 149.416C37.7138 149.779 38.1671 150.275 38.4871 150.904C38.8178 151.533 38.9831 152.248 38.9831 153.048C38.9831 153.848 38.8178 154.563 38.4871 155.192C38.1671 155.811 37.7085 156.301 37.1111 156.664C36.5245 157.016 35.8365 157.192 35.0471 157.192ZM34.9031 156.024C35.4365 156.024 35.9058 155.901 36.3111 155.656C36.7165 155.4 37.0365 155.048 37.2711 154.6C37.5058 154.152 37.6231 153.629 37.6231 153.032C37.6231 152.435 37.5058 151.912 37.2711 151.464C37.0365 151.016 36.7165 150.669 36.3111 150.424C35.9058 150.168 35.4365 150.04 34.9031 150.04C34.3698 150.04 33.9005 150.168 33.4951 150.424C33.0898 150.669 32.7698 151.016 32.5351 151.464C32.3005 151.912 32.1831 152.435 32.1831 153.032C32.1831 153.629 32.3005 154.152 32.5351 154.6C32.7698 155.048 33.0898 155.4 33.4951 155.656C33.9005 155.901 34.3698 156.024 34.9031 156.024ZM44.422 157.192C43.6647 157.192 42.9927 157.021 42.406 156.68C41.8193 156.328 41.3553 155.843 41.014 155.224C40.6833 154.605 40.518 153.875 40.518 153.032C40.518 152.2 40.6833 151.475 41.014 150.856C41.3447 150.227 41.8033 149.741 42.39 149.4C42.9873 149.048 43.6753 148.872 44.454 148.872C45.222 148.872 45.8833 149.048 46.438 149.4C47.0033 149.741 47.4353 150.195 47.734 150.76C48.0327 151.325 48.182 151.933 48.182 152.584C48.182 152.701 48.1767 152.819 48.166 152.936C48.166 153.053 48.166 153.187 48.166 153.336H41.846C41.878 153.944 42.0167 154.451 42.262 154.856C42.518 155.251 42.8327 155.549 43.206 155.752C43.59 155.955 43.9953 156.056 44.422 156.056C44.9767 156.056 45.4407 155.928 45.814 155.672C46.1873 155.416 46.4593 155.069 46.63 154.632H47.958C47.7447 155.368 47.334 155.981 46.726 156.472C46.1287 156.952 45.3607 157.192 44.422 157.192ZM44.422 150.008C43.782 150.008 43.2113 150.205 42.71 150.6C42.2193 150.984 41.9367 151.549 41.862 152.296H46.854C46.822 151.581 46.5767 151.021 46.118 150.616C45.6593 150.211 45.094 150.008 44.422 150.008ZM1.184 173V161.8H4.864C5.73867 161.8 6.45867 161.944 7.024 162.232C7.58933 162.52 8.00533 162.909 8.272 163.4C8.54933 163.891 8.688 164.445 8.688 165.064C8.688 165.672 8.55467 166.221 8.288 166.712C8.02133 167.203 7.60533 167.597 7.04 167.896C6.47467 168.184 5.74933 168.328 4.864 168.328H2.528V173H1.184ZM2.528 167.192H4.832C5.728 167.192 6.36267 167.005 6.736 166.632C7.12 166.248 7.312 165.725 7.312 165.064C7.312 164.392 7.12 163.869 6.736 163.496C6.36267 163.112 5.728 162.92 4.832 162.92H2.528V167.192ZM10.3696 173V161.48H11.7136V166.424C11.9803 165.933 12.359 165.555 12.8496 165.288C13.3403 165.011 13.8736 164.872 14.4496 164.872C15.367 164.872 16.103 165.16 16.6576 165.736C17.2123 166.301 17.4896 167.176 17.4896 168.36V173H16.1616V168.504C16.1616 166.851 15.495 166.024 14.1616 166.024C13.4683 166.024 12.887 166.275 12.4176 166.776C11.9483 167.267 11.7136 167.971 11.7136 168.888V173H10.3696ZM23.1419 173.192C22.3952 173.192 21.7232 173.021 21.1259 172.68C20.5285 172.339 20.0539 171.859 19.7019 171.24C19.3605 170.611 19.1899 169.875 19.1899 169.032C19.1899 168.189 19.3659 167.459 19.7179 166.84C20.0699 166.211 20.5445 165.725 21.1419 165.384C21.7499 165.043 22.4272 164.872 23.1739 164.872C23.9205 164.872 24.5925 165.043 25.1899 165.384C25.7872 165.725 26.2565 166.211 26.5979 166.84C26.9499 167.459 27.1259 168.189 27.1259 169.032C27.1259 169.875 26.9499 170.611 26.5979 171.24C26.2459 171.859 25.7659 172.339 25.1579 172.68C24.5605 173.021 23.8885 173.192 23.1419 173.192ZM23.1419 172.04C23.6005 172.04 24.0272 171.928 24.4219 171.704C24.8165 171.48 25.1365 171.144 25.3819 170.696C25.6272 170.248 25.7499 169.693 25.7499 169.032C25.7499 168.371 25.6272 167.816 25.3819 167.368C25.1472 166.92 24.8325 166.584 24.4379 166.36C24.0432 166.136 23.6219 166.024 23.1739 166.024C22.7152 166.024 22.2885 166.136 21.8939 166.36C21.4992 166.584 21.1792 166.92 20.9339 167.368C20.6885 167.816 20.5659 168.371 20.5659 169.032C20.5659 169.693 20.6885 170.248 20.9339 170.696C21.1792 171.144 21.4939 171.48 21.8779 171.704C22.2725 171.928 22.6939 172.04 23.1419 172.04ZM31.8181 173C31.0928 173 30.5221 172.824 30.1061 172.472C29.6901 172.12 29.4821 171.485 29.4821 170.568V166.2H28.1061V165.064H29.4821L29.6581 163.16H30.8261V165.064H33.1621V166.2H30.8261V170.568C30.8261 171.069 30.9275 171.411 31.1301 171.592C31.3328 171.763 31.6901 171.848 32.2021 171.848H33.0341V173H31.8181ZM38.2669 173.192C37.5202 173.192 36.8482 173.021 36.2509 172.68C35.6535 172.339 35.1789 171.859 34.8269 171.24C34.4855 170.611 34.3149 169.875 34.3149 169.032C34.3149 168.189 34.4909 167.459 34.8429 166.84C35.1949 166.211 35.6695 165.725 36.2669 165.384C36.8749 165.043 37.5522 164.872 38.2989 164.872C39.0455 164.872 39.7175 165.043 40.3149 165.384C40.9122 165.725 41.3815 166.211 41.7229 166.84C42.0749 167.459 42.2509 168.189 42.2509 169.032C42.2509 169.875 42.0749 170.611 41.7229 171.24C41.3709 171.859 40.8909 172.339 40.2829 172.68C39.6855 173.021 39.0135 173.192 38.2669 173.192ZM38.2669 172.04C38.7255 172.04 39.1522 171.928 39.5469 171.704C39.9415 171.48 40.2615 171.144 40.5069 170.696C40.7522 170.248 40.8749 169.693 40.8749 169.032C40.8749 168.371 40.7522 167.816 40.5069 167.368C40.2722 166.92 39.9575 166.584 39.5629 166.36C39.1682 166.136 38.7469 166.024 38.2989 166.024C37.8402 166.024 37.4135 166.136 37.0189 166.36C36.6242 166.584 36.3042 166.92 36.0589 167.368C35.8135 167.816 35.6909 168.371 35.6909 169.032C35.6909 169.693 35.8135 170.248 36.0589 170.696C36.3042 171.144 36.6189 171.48 37.0029 171.704C37.3975 171.928 37.8189 172.04 38.2669 172.04ZM47.1596 173.192C46.2103 173.192 45.421 172.952 44.7916 172.472C44.1623 171.992 43.7943 171.341 43.6876 170.52H45.0636C45.149 170.936 45.3676 171.299 45.7196 171.608C46.0823 171.907 46.5676 172.056 47.1756 172.056C47.741 172.056 48.157 171.939 48.4236 171.704C48.6903 171.459 48.8236 171.171 48.8236 170.84C48.8236 170.36 48.6476 170.04 48.2956 169.88C47.9543 169.72 47.469 169.576 46.8396 169.448C46.413 169.363 45.9863 169.24 45.5596 169.08C45.133 168.92 44.7756 168.696 44.4876 168.408C44.1996 168.109 44.0556 167.72 44.0556 167.24C44.0556 166.547 44.3116 165.981 44.8236 165.544C45.3463 165.096 46.0503 164.872 46.9356 164.872C47.7783 164.872 48.4663 165.085 48.9996 165.512C49.5436 165.928 49.8583 166.525 49.9436 167.304H48.6156C48.5623 166.899 48.3863 166.584 48.0876 166.36C47.7996 166.125 47.4103 166.008 46.9196 166.008C46.4396 166.008 46.0663 166.109 45.7996 166.312C45.5436 166.515 45.4156 166.781 45.4156 167.112C45.4156 167.432 45.581 167.683 45.9116 167.864C46.253 168.045 46.7116 168.2 47.2876 168.328C47.7783 168.435 48.2423 168.568 48.6796 168.728C49.1276 168.877 49.4903 169.107 49.7676 169.416C50.0556 169.715 50.1996 170.152 50.1996 170.728C50.2103 171.443 49.9383 172.035 49.3836 172.504C48.8396 172.963 48.0983 173.192 47.1596 173.192ZM52.1196 173V161.48H53.4636V166.424C53.7303 165.933 54.109 165.555 54.5996 165.288C55.0903 165.011 55.6236 164.872 56.1996 164.872C57.117 164.872 57.853 165.16 58.4076 165.736C58.9623 166.301 59.2396 167.176 59.2396 168.36V173H57.9116V168.504C57.9116 166.851 57.245 166.024 55.9116 166.024C55.2183 166.024 54.637 166.275 54.1676 166.776C53.6983 167.267 53.4636 167.971 53.4636 168.888V173H52.1196ZM64.8919 173.192C64.1452 173.192 63.4732 173.021 62.8759 172.68C62.2785 172.339 61.8039 171.859 61.4519 171.24C61.1105 170.611 60.9399 169.875 60.9399 169.032C60.9399 168.189 61.1159 167.459 61.4679 166.84C61.8199 166.211 62.2945 165.725 62.8919 165.384C63.4999 165.043 64.1772 164.872 64.9239 164.872C65.6705 164.872 66.3425 165.043 66.9399 165.384C67.5372 165.725 68.0065 166.211 68.3479 166.84C68.6999 167.459 68.8759 168.189 68.8759 169.032C68.8759 169.875 68.6999 170.611 68.3479 171.24C67.9959 171.859 67.5159 172.339 66.9079 172.68C66.3105 173.021 65.6385 173.192 64.8919 173.192ZM64.8919 172.04C65.3505 172.04 65.7772 171.928 66.1719 171.704C66.5665 171.48 66.8865 171.144 67.1319 170.696C67.3772 170.248 67.4999 169.693 67.4999 169.032C67.4999 168.371 67.3772 167.816 67.1319 167.368C66.8972 166.92 66.5825 166.584 66.1879 166.36C65.7932 166.136 65.3719 166.024 64.9239 166.024C64.4652 166.024 64.0385 166.136 63.6439 166.36C63.2492 166.584 62.9292 166.92 62.6839 167.368C62.4385 167.816 62.3159 168.371 62.3159 169.032C62.3159 169.693 62.4385 170.248 62.6839 170.696C62.9292 171.144 63.2439 171.48 63.6279 171.704C64.0225 171.928 64.4439 172.04 64.8919 172.04ZM70.7446 176.52V165.064H71.9606L72.0886 166.376C72.3446 165.992 72.7073 165.645 73.1766 165.336C73.6566 165.027 74.2646 164.872 75.0006 164.872C75.79 164.872 76.478 165.053 77.0646 165.416C77.6513 165.779 78.1046 166.275 78.4246 166.904C78.7553 167.533 78.9206 168.248 78.9206 169.048C78.9206 169.848 78.7553 170.563 78.4246 171.192C78.1046 171.811 77.646 172.301 77.0486 172.664C76.462 173.016 75.774 173.192 74.9846 173.192C74.334 173.192 73.7526 173.059 73.2406 172.792C72.7393 172.525 72.3553 172.152 72.0886 171.672V176.52H70.7446ZM74.8406 172.024C75.374 172.024 75.8433 171.901 76.2486 171.656C76.654 171.4 76.974 171.048 77.2086 170.6C77.4433 170.152 77.5606 169.629 77.5606 169.032C77.5606 168.435 77.4433 167.912 77.2086 167.464C76.974 167.016 76.654 166.669 76.2486 166.424C75.8433 166.168 75.374 166.04 74.8406 166.04C74.3073 166.04 73.838 166.168 73.4326 166.424C73.0273 166.669 72.7073 167.016 72.4726 167.464C72.238 167.912 72.1206 168.435 72.1206 169.032C72.1206 169.629 72.238 170.152 72.4726 170.6C72.7073 171.048 73.0273 171.4 73.4326 171.656C73.838 171.901 74.3073 172.024 74.8406 172.024Z" fill="#221517"/>
<path d="M1.184 221V209.8H2.528V214.744H8.336V209.8H9.68V221H8.336V215.848H2.528V221H1.184ZM14.6674 221V210.904H11.3234V209.8H19.3554V210.904H16.0114V221H14.6674ZM20.9965 221V209.8H22.5645L26.5965 217.608L30.5965 209.8H32.1805V221H30.8365V212.2L27.0925 219.4H26.0845L22.3405 212.216V221H20.9965ZM34.5434 221V209.8H35.8874V219.928H41.1034V221H34.5434ZM47.984 211.304C47.728 211.304 47.5093 211.219 47.328 211.048C47.1467 210.867 47.056 210.643 47.056 210.376C47.056 210.12 47.1467 209.907 47.328 209.736C47.5093 209.565 47.728 209.48 47.984 209.48C48.24 209.48 48.4533 209.565 48.624 209.736C48.8053 209.907 48.896 210.12 48.896 210.376C48.896 210.643 48.8053 210.867 48.624 211.048C48.4533 211.219 48.24 211.304 47.984 211.304ZM45.552 224.52V223.368H46.176C46.5707 223.368 46.8533 223.283 47.024 223.112C47.2053 222.952 47.296 222.675 47.296 222.28V213.064H48.64V222.312C48.64 223.08 48.448 223.64 48.064 223.992C47.68 224.344 47.12 224.52 46.384 224.52H45.552ZM53.619 221.192C52.9577 221.192 52.4083 221.08 51.971 220.856C51.5337 220.632 51.2083 220.333 50.995 219.96C50.7817 219.587 50.675 219.181 50.675 218.744C50.675 217.933 50.9843 217.309 51.603 216.872C52.2217 216.435 53.0643 216.216 54.131 216.216H56.275V216.12C56.275 215.427 56.0937 214.904 55.731 214.552C55.3683 214.189 54.883 214.008 54.275 214.008C53.7523 214.008 53.299 214.141 52.915 214.408C52.5417 214.664 52.307 215.043 52.211 215.544H50.835C50.8883 214.968 51.0803 214.483 51.411 214.088C51.7523 213.693 52.1737 213.395 52.675 213.192C53.1763 212.979 53.7097 212.872 54.275 212.872C55.3843 212.872 56.2163 213.171 56.771 213.768C57.3363 214.355 57.619 215.139 57.619 216.12V221H56.419L56.339 219.576C56.115 220.024 55.7843 220.408 55.347 220.728C54.9203 221.037 54.3443 221.192 53.619 221.192ZM53.827 220.056C54.339 220.056 54.7763 219.923 55.139 219.656C55.5123 219.389 55.795 219.043 55.987 218.616C56.179 218.189 56.275 217.741 56.275 217.272V217.256H54.243C53.4537 217.256 52.8937 217.395 52.563 217.672C52.243 217.939 52.083 218.275 52.083 218.68C52.083 219.096 52.2323 219.432 52.531 219.688C52.8403 219.933 53.2723 220.056 53.827 220.056ZM68.8616 221.192C67.763 221.192 66.8136 220.952 66.0136 220.472C65.2243 219.981 64.611 219.304 64.1736 218.44C63.7363 217.565 63.5176 216.552 63.5176 215.4C63.5176 214.259 63.7363 213.256 64.1736 212.392C64.611 211.517 65.2243 210.835 66.0136 210.344C66.8136 209.853 67.763 209.608 68.8616 209.608C70.1416 209.608 71.1816 209.917 71.9816 210.536C72.7923 211.144 73.3096 211.997 73.5336 213.096H72.0456C71.875 212.403 71.523 211.848 70.9896 211.432C70.467 211.005 69.7576 210.792 68.8616 210.792C68.0616 210.792 67.363 210.979 66.7656 211.352C66.1683 211.715 65.7043 212.243 65.3736 212.936C65.0536 213.619 64.8936 214.44 64.8936 215.4C64.8936 216.36 65.0536 217.187 65.3736 217.88C65.7043 218.563 66.1683 219.091 66.7656 219.464C67.363 219.827 68.0616 220.008 68.8616 220.008C69.7576 220.008 70.467 219.805 70.9896 219.4C71.523 218.984 71.875 218.435 72.0456 217.752H73.5336C73.3096 218.829 72.7923 219.672 71.9816 220.28C71.1816 220.888 70.1416 221.192 68.8616 221.192ZM79.0333 221.192C78.2119 221.192 77.4973 221.043 76.8893 220.744C76.2813 220.445 75.8119 220.029 75.4813 219.496C75.1506 218.963 74.9853 218.344 74.9853 217.64H76.3932C76.3932 218.077 76.4946 218.483 76.6973 218.856C76.8999 219.219 77.1933 219.512 77.5773 219.736C77.9719 219.949 78.4573 220.056 79.0333 220.056C79.7906 220.056 80.3773 219.875 80.7933 219.512C81.2093 219.149 81.4173 218.696 81.4173 218.152C81.4173 217.704 81.3213 217.347 81.1293 217.08C80.9373 216.803 80.6759 216.579 80.3453 216.408C80.0253 216.237 79.6519 216.088 79.2253 215.96C78.8093 215.832 78.3719 215.688 77.9133 215.528C77.0493 215.229 76.4093 214.861 75.9933 214.424C75.5773 213.976 75.3693 213.395 75.3693 212.68C75.3586 212.083 75.4973 211.555 75.7853 211.096C76.0733 210.627 76.4786 210.264 77.0013 210.008C77.5346 209.741 78.1639 209.608 78.8893 209.608C79.6039 209.608 80.2226 209.741 80.7453 210.008C81.2786 210.275 81.6893 210.643 81.9773 211.112C82.2759 211.581 82.4306 212.115 82.4413 212.712H81.0333C81.0333 212.403 80.9533 212.099 80.7933 211.8C80.6333 211.491 80.3879 211.24 80.0573 211.048C79.7373 210.856 79.3319 210.76 78.8413 210.76C78.2333 210.749 77.7319 210.904 77.3373 211.224C76.9533 211.544 76.7613 211.987 76.7613 212.552C76.7613 213.032 76.8946 213.4 77.1613 213.656C77.4386 213.912 77.8226 214.125 78.3133 214.296C78.8039 214.456 79.3693 214.643 80.0093 214.856C80.5426 215.048 81.0226 215.272 81.4493 215.528C81.8759 215.784 82.2066 216.115 82.4413 216.52C82.6866 216.925 82.8093 217.443 82.8093 218.072C82.8093 218.605 82.6706 219.112 82.3933 219.592C82.1159 220.061 81.6946 220.445 81.1293 220.744C80.5746 221.043 79.8759 221.192 79.0333 221.192ZM88.2833 221.192C87.4619 221.192 86.7473 221.043 86.1393 220.744C85.5313 220.445 85.0619 220.029 84.7313 219.496C84.4006 218.963 84.2353 218.344 84.2353 217.64H85.6432C85.6432 218.077 85.7446 218.483 85.9473 218.856C86.1499 219.219 86.4433 219.512 86.8273 219.736C87.2219 219.949 87.7073 220.056 88.2833 220.056C89.0406 220.056 89.6273 219.875 90.0433 219.512C90.4593 219.149 90.6673 218.696 90.6673 218.152C90.6673 217.704 90.5713 217.347 90.3793 217.08C90.1873 216.803 89.9259 216.579 89.5953 216.408C89.2753 216.237 88.9019 216.088 88.4753 215.96C88.0593 215.832 87.6219 215.688 87.1633 215.528C86.2993 215.229 85.6593 214.861 85.2433 214.424C84.8273 213.976 84.6193 213.395 84.6193 212.68C84.6086 212.083 84.7473 211.555 85.0353 211.096C85.3233 210.627 85.7286 210.264 86.2513 210.008C86.7846 209.741 87.4139 209.608 88.1393 209.608C88.8539 209.608 89.4726 209.741 89.9953 210.008C90.5286 210.275 90.9393 210.643 91.2273 211.112C91.5259 211.581 91.6806 212.115 91.6913 212.712H90.2833C90.2833 212.403 90.2033 212.099 90.0433 211.8C89.8833 211.491 89.6379 211.24 89.3073 211.048C88.9873 210.856 88.5819 210.76 88.0913 210.76C87.4833 210.749 86.9819 210.904 86.5873 211.224C86.2033 211.544 86.0113 211.987 86.0113 212.552C86.0113 213.032 86.1446 213.4 86.4113 213.656C86.6886 213.912 87.0726 214.125 87.5633 214.296C88.0539 214.456 88.6193 214.643 89.2593 214.856C89.7926 215.048 90.2726 215.272 90.6993 215.528C91.1259 215.784 91.4566 216.115 91.6913 216.52C91.9366 216.925 92.0593 217.443 92.0593 218.072C92.0593 218.605 91.9206 219.112 91.6433 219.592C91.3659 220.061 90.9446 220.445 90.3793 220.744C89.8246 221.043 89.1259 221.192 88.2833 221.192Z" fill="#221517"/>
<path d="M0.48 269L4.608 257.8H6.032L10.144 269H8.72L7.696 266.12H2.928L1.888 269H0.48ZM3.328 265.032H7.296L5.312 259.496L3.328 265.032ZM14.8915 269.192C14.1022 269.192 13.4088 269.011 12.8115 268.648C12.2248 268.285 11.7662 267.789 11.4355 267.16C11.1155 266.531 10.9555 265.816 10.9555 265.016C10.9555 264.216 11.1208 263.507 11.4515 262.888C11.7822 262.259 12.2408 261.768 12.8275 261.416C13.4142 261.053 14.1075 260.872 14.9075 260.872C15.5582 260.872 16.1342 261.005 16.6355 261.272C17.1368 261.539 17.5262 261.912 17.8035 262.392V257.48H19.1475V269H17.9315L17.8035 267.688C17.5475 268.072 17.1795 268.419 16.6995 268.728C16.2195 269.037 15.6168 269.192 14.8915 269.192ZM15.0355 268.024C15.5688 268.024 16.0382 267.901 16.4435 267.656C16.8595 267.4 17.1795 267.048 17.4035 266.6C17.6382 266.152 17.7555 265.629 17.7555 265.032C17.7555 264.435 17.6382 263.912 17.4035 263.464C17.1795 263.016 16.8595 262.669 16.4435 262.424C16.0382 262.168 15.5688 262.04 15.0355 262.04C14.5128 262.04 14.0435 262.168 13.6275 262.424C13.2222 262.669 12.9022 263.016 12.6675 263.464C12.4435 263.912 12.3315 264.435 12.3315 265.032C12.3315 265.629 12.4435 266.152 12.6675 266.6C12.9022 267.048 13.2222 267.4 13.6275 267.656C14.0435 267.901 14.5128 268.024 15.0355 268.024ZM24.9544 269.192C24.2077 269.192 23.5357 269.021 22.9384 268.68C22.341 268.339 21.8664 267.859 21.5144 267.24C21.173 266.611 21.0024 265.875 21.0024 265.032C21.0024 264.189 21.1784 263.459 21.5304 262.84C21.8824 262.211 22.357 261.725 22.9544 261.384C23.5624 261.043 24.2397 260.872 24.9864 260.872C25.733 260.872 26.405 261.043 27.0024 261.384C27.5997 261.725 28.069 262.211 28.4104 262.84C28.7624 263.459 28.9384 264.189 28.9384 265.032C28.9384 265.875 28.7624 266.611 28.4104 267.24C28.0584 267.859 27.5784 268.339 26.9704 268.68C26.373 269.021 25.701 269.192 24.9544 269.192ZM24.9544 268.04C25.413 268.04 25.8397 267.928 26.2344 267.704C26.629 267.48 26.949 267.144 27.1944 266.696C27.4397 266.248 27.5624 265.693 27.5624 265.032C27.5624 264.371 27.4397 263.816 27.1944 263.368C26.9597 262.92 26.645 262.584 26.2504 262.36C25.8557 262.136 25.4344 262.024 24.9864 262.024C24.5277 262.024 24.101 262.136 23.7064 262.36C23.3117 262.584 22.9917 262.92 22.7464 263.368C22.501 263.816 22.3784 264.371 22.3784 265.032C22.3784 265.693 22.501 266.248 22.7464 266.696C22.9917 267.144 23.3064 267.48 23.6904 267.704C24.085 267.928 24.5064 268.04 24.9544 268.04ZM35.0471 269.192C34.3965 269.192 33.8151 269.059 33.3031 268.792C32.8018 268.525 32.4178 268.152 32.1511 267.672L32.0231 269H30.8071V257.48H32.1511V262.376C32.4071 261.992 32.7698 261.645 33.2391 261.336C33.7191 261.027 34.3271 260.872 35.0631 260.872C35.8525 260.872 36.5405 261.053 37.1271 261.416C37.7138 261.779 38.1671 262.275 38.4871 262.904C38.8178 263.533 38.9831 264.248 38.9831 265.048C38.9831 265.848 38.8178 266.563 38.4871 267.192C38.1671 267.811 37.7085 268.301 37.1111 268.664C36.5245 269.016 35.8365 269.192 35.0471 269.192ZM34.9031 268.024C35.4365 268.024 35.9058 267.901 36.3111 267.656C36.7165 267.4 37.0365 267.048 37.2711 266.6C37.5058 266.152 37.6231 265.629 37.6231 265.032C37.6231 264.435 37.5058 263.912 37.2711 263.464C37.0365 263.016 36.7165 262.669 36.3111 262.424C35.9058 262.168 35.4365 262.04 34.9031 262.04C34.3698 262.04 33.9005 262.168 33.4951 262.424C33.0898 262.669 32.7698 263.016 32.5351 263.464C32.3005 263.912 32.1831 264.435 32.1831 265.032C32.1831 265.629 32.3005 266.152 32.5351 266.6C32.7698 267.048 33.0898 267.4 33.4951 267.656C33.9005 267.901 34.3698 268.024 34.9031 268.024ZM44.422 269.192C43.6647 269.192 42.9927 269.021 42.406 268.68C41.8193 268.328 41.3553 267.843 41.014 267.224C40.6833 266.605 40.518 265.875 40.518 265.032C40.518 264.2 40.6833 263.475 41.014 262.856C41.3447 262.227 41.8033 261.741 42.39 261.4C42.9873 261.048 43.6753 260.872 44.454 260.872C45.222 260.872 45.8833 261.048 46.438 261.4C47.0033 261.741 47.4353 262.195 47.734 262.76C48.0327 263.325 48.182 263.933 48.182 264.584C48.182 264.701 48.1767 264.819 48.166 264.936C48.166 265.053 48.166 265.187 48.166 265.336H41.846C41.878 265.944 42.0167 266.451 42.262 266.856C42.518 267.251 42.8327 267.549 43.206 267.752C43.59 267.955 43.9953 268.056 44.422 268.056C44.9767 268.056 45.4407 267.928 45.814 267.672C46.1873 267.416 46.4593 267.069 46.63 266.632H47.958C47.7447 267.368 47.334 267.981 46.726 268.472C46.1287 268.952 45.3607 269.192 44.422 269.192ZM44.422 262.008C43.782 262.008 43.2113 262.205 42.71 262.6C42.2193 262.984 41.9367 263.549 41.862 264.296H46.854C46.822 263.581 46.5767 263.021 46.118 262.616C45.6593 262.211 45.094 262.008 44.422 262.008ZM53.5738 269L57.7018 257.8H59.1258L63.2378 269H61.8138L60.7898 266.12H56.0218L54.9818 269H53.5738ZM56.4218 265.032H60.3898L58.4058 259.496L56.4218 265.032ZM64.9891 269V262.2H63.7891V261.064H64.9891V259.688C64.9891 258.92 65.1811 258.36 65.5651 258.008C65.9491 257.656 66.5091 257.48 67.2451 257.48H68.0451V258.632H67.4531C67.0478 258.632 66.7598 258.717 66.5891 258.888C66.4185 259.048 66.3331 259.325 66.3331 259.72V261.064H68.2851V262.2H66.3331V269H64.9891ZM73.0213 269C72.2959 269 71.7253 268.824 71.3093 268.472C70.8933 268.12 70.6853 267.485 70.6853 266.568V262.2H69.3092V261.064H70.6853L70.8613 259.16H72.0293V261.064H74.3653V262.2H72.0293V266.568C72.0293 267.069 72.1306 267.411 72.3333 267.592C72.5359 267.763 72.8933 267.848 73.4053 267.848H74.2373V269H73.0213ZM79.422 269.192C78.6647 269.192 77.9927 269.021 77.406 268.68C76.8193 268.328 76.3553 267.843 76.014 267.224C75.6833 266.605 75.518 265.875 75.518 265.032C75.518 264.2 75.6833 263.475 76.014 262.856C76.3447 262.227 76.8033 261.741 77.39 261.4C77.9873 261.048 78.6753 260.872 79.454 260.872C80.222 260.872 80.8833 261.048 81.438 261.4C82.0033 261.741 82.4353 262.195 82.734 262.76C83.0327 263.325 83.182 263.933 83.182 264.584C83.182 264.701 83.1767 264.819 83.166 264.936C83.166 265.053 83.166 265.187 83.166 265.336H76.846C76.878 265.944 77.0167 266.451 77.262 266.856C77.518 267.251 77.8327 267.549 78.206 267.752C78.59 267.955 78.9953 268.056 79.422 268.056C79.9767 268.056 80.4407 267.928 80.814 267.672C81.1873 267.416 81.4593 267.069 81.63 266.632H82.958C82.7447 267.368 82.334 267.981 81.726 268.472C81.1287 268.952 80.3607 269.192 79.422 269.192ZM79.422 262.008C78.782 262.008 78.2113 262.205 77.71 262.6C77.2193 262.984 76.9367 263.549 76.862 264.296H81.854C81.822 263.581 81.5767 263.021 81.118 262.616C80.6593 262.211 80.094 262.008 79.422 262.008ZM84.9634 269V261.064H86.1794L86.2914 262.584C86.5367 262.061 86.91 261.645 87.4114 261.336C87.9127 261.027 88.5314 260.872 89.2674 260.872V262.28H88.8994C88.43 262.28 87.998 262.365 87.6034 262.536C87.2087 262.696 86.894 262.973 86.6594 263.368C86.4247 263.763 86.3074 264.307 86.3074 265V269H84.9634ZM1.184 285V273.8H8.112V274.904H2.528V278.808H7.632V279.896H2.528V283.896H8.112V285H1.184ZM10.5673 285V278.2H9.36725V277.064H10.5673V275.688C10.5673 274.92 10.7593 274.36 11.1432 274.008C11.5273 273.656 12.0873 273.48 12.8233 273.48H13.6233V274.632H13.0312C12.6259 274.632 12.3379 274.717 12.1673 274.888C11.9966 275.048 11.9113 275.325 11.9113 275.72V277.064H13.8633V278.2H11.9113V285H10.5673ZM15.8954 285V278.2H14.6954V277.064H15.8954V275.688C15.8954 274.92 16.0874 274.36 16.4714 274.008C16.8554 273.656 17.4154 273.48 18.1514 273.48H18.9514V274.632H18.3594C17.954 274.632 17.666 274.717 17.4954 274.888C17.3247 275.048 17.2394 275.325 17.2394 275.72V277.064H19.1914V278.2H17.2394V285H15.8954ZM24.047 285.192C23.2897 285.192 22.6177 285.021 22.031 284.68C21.4443 284.328 20.9803 283.843 20.639 283.224C20.3083 282.605 20.143 281.875 20.143 281.032C20.143 280.2 20.3083 279.475 20.639 278.856C20.9697 278.227 21.4283 277.741 22.015 277.4C22.6123 277.048 23.3003 276.872 24.079 276.872C24.847 276.872 25.5083 277.048 26.063 277.4C26.6283 277.741 27.0603 278.195 27.359 278.76C27.6577 279.325 27.807 279.933 27.807 280.584C27.807 280.701 27.8017 280.819 27.791 280.936C27.791 281.053 27.791 281.187 27.791 281.336H21.471C21.503 281.944 21.6417 282.451 21.887 282.856C22.143 283.251 22.4577 283.549 22.831 283.752C23.215 283.955 23.6203 284.056 24.047 284.056C24.6017 284.056 25.0657 283.928 25.439 283.672C25.8123 283.416 26.0843 283.069 26.255 282.632H27.583C27.3697 283.368 26.959 283.981 26.351 284.472C25.7537 284.952 24.9857 285.192 24.047 285.192ZM24.047 278.008C23.407 278.008 22.8363 278.205 22.335 278.6C21.8443 278.984 21.5617 279.549 21.487 280.296H26.479C26.447 279.581 26.2017 279.021 25.743 278.616C25.2843 278.211 24.719 278.008 24.047 278.008ZM33.2364 285.192C32.479 285.192 31.7964 285.021 31.1884 284.68C30.591 284.328 30.1164 283.843 29.7644 283.224C29.423 282.595 29.2524 281.864 29.2524 281.032C29.2524 280.2 29.423 279.475 29.7644 278.856C30.1164 278.227 30.591 277.741 31.1884 277.4C31.7964 277.048 32.479 276.872 33.2364 276.872C34.175 276.872 34.9644 277.117 35.6044 277.608C36.255 278.099 36.6657 278.755 36.8364 279.576H35.4604C35.3537 279.085 35.0924 278.707 34.6764 278.44C34.2604 278.163 33.775 278.024 33.2204 278.024C32.7724 278.024 32.351 278.136 31.9564 278.36C31.5617 278.584 31.2417 278.92 30.9964 279.368C30.751 279.816 30.6284 280.371 30.6284 281.032C30.6284 281.693 30.751 282.248 30.9964 282.696C31.2417 283.144 31.5617 283.485 31.9564 283.72C32.351 283.944 32.7724 284.056 33.2204 284.056C33.775 284.056 34.2604 283.923 34.6764 283.656C35.0924 283.379 35.3537 282.989 35.4604 282.488H36.8364C36.6764 283.288 36.271 283.939 35.6204 284.44C34.9697 284.941 34.175 285.192 33.2364 285.192ZM41.6306 285C40.9053 285 40.3346 284.824 39.9186 284.472C39.5026 284.12 39.2946 283.485 39.2946 282.568V278.2H37.9186V277.064H39.2946L39.4706 275.16H40.6386V277.064H42.9746V278.2H40.6386V282.568C40.6386 283.069 40.74 283.411 40.9426 283.592C41.1453 283.763 41.5026 283.848 42.0146 283.848H42.8466V285H41.6306ZM47.7221 285.192C46.7728 285.192 45.9835 284.952 45.3541 284.472C44.7248 283.992 44.3568 283.341 44.2501 282.52H45.6261C45.7115 282.936 45.9301 283.299 46.2821 283.608C46.6448 283.907 47.1301 284.056 47.7381 284.056C48.3035 284.056 48.7195 283.939 48.9861 283.704C49.2528 283.459 49.3861 283.171 49.3861 282.84C49.3861 282.36 49.2101 282.04 48.8581 281.88C48.5168 281.72 48.0315 281.576 47.4021 281.448C46.9755 281.363 46.5488 281.24 46.1221 281.08C45.6955 280.92 45.3381 280.696 45.0501 280.408C44.7621 280.109 44.6181 279.72 44.6181 279.24C44.6181 278.547 44.8741 277.981 45.3861 277.544C45.9088 277.096 46.6128 276.872 47.4981 276.872C48.3408 276.872 49.0288 277.085 49.5621 277.512C50.1061 277.928 50.4208 278.525 50.5061 279.304H49.1781C49.1248 278.899 48.9488 278.584 48.6501 278.36C48.3621 278.125 47.9728 278.008 47.4821 278.008C47.0021 278.008 46.6288 278.109 46.3621 278.312C46.1061 278.515 45.9781 278.781 45.9781 279.112C45.9781 279.432 46.1435 279.683 46.4741 279.864C46.8155 280.045 47.2741 280.2 47.8501 280.328C48.3408 280.435 48.8048 280.568 49.2421 280.728C49.6901 280.877 50.0528 281.107 50.3301 281.416C50.6181 281.715 50.7621 282.152 50.7621 282.728C50.7728 283.443 50.5008 284.035 49.9461 284.504C49.4021 284.963 48.6608 285.192 47.7221 285.192Z" fill="#221517"/>
<path d="M3.488 333.016L0.416 321.8H1.856L4.272 331.416L7.024 321.8H8.512L11.184 331.416L13.632 321.8H15.072L11.936 333H10.4L7.728 323.752L4.992 333L3.488 333.016ZM19.3283 333.192C18.5709 333.192 17.8989 333.021 17.3123 332.68C16.7256 332.328 16.2616 331.843 15.9203 331.224C15.5896 330.605 15.4243 329.875 15.4243 329.032C15.4243 328.2 15.5896 327.475 15.9203 326.856C16.2509 326.227 16.7096 325.741 17.2963 325.4C17.8936 325.048 18.5816 324.872 19.3602 324.872C20.1283 324.872 20.7896 325.048 21.3443 325.4C21.9096 325.741 22.3416 326.195 22.6403 326.76C22.9389 327.325 23.0883 327.933 23.0883 328.584C23.0883 328.701 23.0829 328.819 23.0723 328.936C23.0723 329.053 23.0723 329.187 23.0723 329.336H16.7523C16.7843 329.944 16.9229 330.451 17.1683 330.856C17.4243 331.251 17.7389 331.549 18.1123 331.752C18.4963 331.955 18.9016 332.056 19.3283 332.056C19.8829 332.056 20.3469 331.928 20.7203 331.672C21.0936 331.416 21.3656 331.069 21.5363 330.632H22.8643C22.6509 331.368 22.2403 331.981 21.6323 332.472C21.0349 332.952 20.2669 333.192 19.3283 333.192ZM19.3283 326.008C18.6883 326.008 18.1176 326.205 17.6163 326.6C17.1256 326.984 16.8429 327.549 16.7682 328.296H21.7603C21.7283 327.581 21.4829 327.021 21.0243 326.616C20.5656 326.211 20.0003 326.008 19.3283 326.008ZM29.1096 333.192C28.459 333.192 27.8776 333.059 27.3656 332.792C26.8643 332.525 26.4803 332.152 26.2136 331.672L26.0856 333H24.8696V321.48H26.2136V326.376C26.4696 325.992 26.8323 325.645 27.3016 325.336C27.7816 325.027 28.3896 324.872 29.1256 324.872C29.915 324.872 30.603 325.053 31.1896 325.416C31.7763 325.779 32.2296 326.275 32.5496 326.904C32.8803 327.533 33.0456 328.248 33.0456 329.048C33.0456 329.848 32.8803 330.563 32.5496 331.192C32.2296 331.811 31.771 332.301 31.1736 332.664C30.587 333.016 29.899 333.192 29.1096 333.192ZM28.9656 332.024C29.499 332.024 29.9683 331.901 30.3736 331.656C30.779 331.4 31.099 331.048 31.3336 330.6C31.5683 330.152 31.6856 329.629 31.6856 329.032C31.6856 328.435 31.5683 327.912 31.3336 327.464C31.099 327.016 30.779 326.669 30.3736 326.424C29.9683 326.168 29.499 326.04 28.9656 326.04C28.4323 326.04 27.963 326.168 27.5576 326.424C27.1523 326.669 26.8323 327.016 26.5976 327.464C26.363 327.912 26.2456 328.435 26.2456 329.032C26.2456 329.629 26.363 330.152 26.5976 330.6C26.8323 331.048 27.1523 331.4 27.5576 331.656C27.963 331.901 28.4323 332.024 28.9656 332.024ZM35.3485 333V326.2H34.1485V325.064H35.3485V323.688C35.3485 322.92 35.5405 322.36 35.9245 322.008C36.3085 321.656 36.8685 321.48 37.6045 321.48H38.4045V322.632H37.8125C37.4072 322.632 37.1192 322.717 36.9485 322.888C36.7778 323.048 36.6925 323.325 36.6925 323.72V325.064H38.6445V326.2H36.6925V333H35.3485ZM40.2445 333V321.48H41.5885V333H40.2445ZM47.4075 333.192C46.6608 333.192 45.9888 333.021 45.3915 332.68C44.7942 332.339 44.3195 331.859 43.9675 331.24C43.6262 330.611 43.4555 329.875 43.4555 329.032C43.4555 328.189 43.6315 327.459 43.9835 326.84C44.3355 326.211 44.8102 325.725 45.4075 325.384C46.0155 325.043 46.6928 324.872 47.4395 324.872C48.1862 324.872 48.8582 325.043 49.4555 325.384C50.0528 325.725 50.5222 326.211 50.8635 326.84C51.2155 327.459 51.3915 328.189 51.3915 329.032C51.3915 329.875 51.2155 330.611 50.8635 331.24C50.5115 331.859 50.0315 332.339 49.4235 332.68C48.8262 333.021 48.1542 333.192 47.4075 333.192ZM47.4075 332.04C47.8662 332.04 48.2928 331.928 48.6875 331.704C49.0822 331.48 49.4022 331.144 49.6475 330.696C49.8928 330.248 50.0155 329.693 50.0155 329.032C50.0155 328.371 49.8928 327.816 49.6475 327.368C49.4128 326.92 49.0982 326.584 48.7035 326.36C48.3088 326.136 47.8875 326.024 47.4395 326.024C46.9808 326.024 46.5542 326.136 46.1595 326.36C45.7648 326.584 45.4448 326.92 45.1995 327.368C44.9542 327.816 44.8315 328.371 44.8315 329.032C44.8315 329.693 44.9542 330.248 45.1995 330.696C45.4448 331.144 45.7595 331.48 46.1435 331.704C46.5382 331.928 46.9595 332.04 47.4075 332.04ZM54.5634 333L52.2434 325.064H53.5874L55.2674 331.288L57.1234 325.064H58.6434L60.5154 331.288L62.1794 325.064H63.5394L61.2194 333H59.8434L57.8914 326.456L55.9394 333H54.5634Z" fill="#221517"/>
<path d="M4.752 381.192C3.93067 381.192 3.216 381.043 2.608 380.744C2 380.445 1.53067 380.029 1.2 379.496C0.869333 378.963 0.704 378.344 0.704 377.64H2.112C2.112 378.077 2.21333 378.483 2.416 378.856C2.61867 379.219 2.912 379.512 3.296 379.736C3.69067 379.949 4.176 380.056 4.752 380.056C5.50933 380.056 6.096 379.875 6.512 379.512C6.928 379.149 7.136 378.696 7.136 378.152C7.136 377.704 7.04 377.347 6.848 377.08C6.656 376.803 6.39467 376.579 6.064 376.408C5.744 376.237 5.37067 376.088 4.944 375.96C4.528 375.832 4.09067 375.688 3.632 375.528C2.768 375.229 2.128 374.861 1.712 374.424C1.296 373.976 1.088 373.395 1.088 372.68C1.07733 372.083 1.216 371.555 1.504 371.096C1.792 370.627 2.19733 370.264 2.72 370.008C3.25333 369.741 3.88267 369.608 4.608 369.608C5.32267 369.608 5.94133 369.741 6.464 370.008C6.99733 370.275 7.408 370.643 7.696 371.112C7.99467 371.581 8.14933 372.115 8.16 372.712H6.752C6.752 372.403 6.672 372.099 6.512 371.8C6.352 371.491 6.10667 371.24 5.776 371.048C5.456 370.856 5.05067 370.76 4.56 370.76C3.952 370.749 3.45067 370.904 3.056 371.224C2.672 371.544 2.48 371.987 2.48 372.552C2.48 373.032 2.61333 373.4 2.88 373.656C3.15733 373.912 3.54133 374.125 4.032 374.296C4.52267 374.456 5.088 374.643 5.728 374.856C6.26133 375.048 6.74133 375.272 7.168 375.528C7.59467 375.784 7.92533 376.115 8.16 376.52C8.40533 376.925 8.528 377.443 8.528 378.072C8.528 378.605 8.38933 379.112 8.112 379.592C7.83467 380.061 7.41333 380.445 6.848 380.744C6.29333 381.043 5.59467 381.192 4.752 381.192ZM10.354 384.52V373.064H11.57L11.698 374.376C11.954 373.992 12.3167 373.645 12.786 373.336C13.266 373.027 13.874 372.872 14.61 372.872C15.3993 372.872 16.0873 373.053 16.674 373.416C17.2607 373.779 17.714 374.275 18.034 374.904C18.3647 375.533 18.53 376.248 18.53 377.048C18.53 377.848 18.3647 378.563 18.034 379.192C17.714 379.811 17.2553 380.301 16.658 380.664C16.0713 381.016 15.3833 381.192 14.594 381.192C13.9433 381.192 13.362 381.059 12.85 380.792C12.3487 380.525 11.9647 380.152 11.698 379.672V384.52H10.354ZM14.45 380.024C14.9833 380.024 15.4527 379.901 15.858 379.656C16.2633 379.4 16.5833 379.048 16.818 378.6C17.0527 378.152 17.17 377.629 17.17 377.032C17.17 376.435 17.0527 375.912 16.818 375.464C16.5833 375.016 16.2633 374.669 15.858 374.424C15.4527 374.168 14.9833 374.04 14.45 374.04C13.9167 374.04 13.4473 374.168 13.042 374.424C12.6367 374.669 12.3167 375.016 12.082 375.464C11.8473 375.912 11.73 376.435 11.73 377.032C11.73 377.629 11.8473 378.152 12.082 378.6C12.3167 379.048 12.6367 379.4 13.042 379.656C13.4473 379.901 13.9167 380.024 14.45 380.024ZM20.4009 381V369.48H21.7449V381H20.4009ZM24.7638 371.304C24.4971 371.304 24.2731 371.219 24.0918 371.048C23.9211 370.867 23.8358 370.643 23.8358 370.376C23.8358 370.12 23.9211 369.907 24.0918 369.736C24.2731 369.565 24.4971 369.48 24.7638 369.48C25.0198 369.48 25.2384 369.565 25.4198 369.736C25.6011 369.907 25.6918 370.12 25.6918 370.376C25.6918 370.643 25.6011 370.867 25.4198 371.048C25.2384 371.219 25.0198 371.304 24.7638 371.304ZM24.0918 381V373.064H25.4358V381H24.0918ZM27.7759 381V373.064H28.9919L29.0719 374.488C29.3279 373.987 29.6959 373.592 30.1759 373.304C30.6559 373.016 31.1999 372.872 31.8079 372.872C32.7465 372.872 33.4932 373.16 34.0479 373.736C34.6132 374.301 34.8959 375.176 34.8959 376.36V381H33.5519V376.504C33.5519 374.851 32.8692 374.024 31.5039 374.024C30.8212 374.024 30.2505 374.275 29.7919 374.776C29.3439 375.267 29.1199 375.971 29.1199 376.888V381H27.7759ZM40.5001 381.192C39.7428 381.192 39.0708 381.021 38.4841 380.68C37.8975 380.328 37.4335 379.843 37.0921 379.224C36.7615 378.605 36.5961 377.875 36.5961 377.032C36.5961 376.2 36.7615 375.475 37.0921 374.856C37.4228 374.227 37.8815 373.741 38.4681 373.4C39.0655 373.048 39.7535 372.872 40.5321 372.872C41.3001 372.872 41.9615 373.048 42.5161 373.4C43.0815 373.741 43.5135 374.195 43.8121 374.76C44.1108 375.325 44.2601 375.933 44.2601 376.584C44.2601 376.701 44.2548 376.819 44.2441 376.936C44.2441 377.053 44.2441 377.187 44.2441 377.336H37.9241C37.9561 377.944 38.0948 378.451 38.3401 378.856C38.5961 379.251 38.9108 379.549 39.2841 379.752C39.6681 379.955 40.0735 380.056 40.5001 380.056C41.0548 380.056 41.5188 379.928 41.8921 379.672C42.2655 379.416 42.5375 379.069 42.7081 378.632H44.0361C43.8228 379.368 43.4121 379.981 42.8041 380.472C42.2068 380.952 41.4388 381.192 40.5001 381.192ZM40.5001 374.008C39.8601 374.008 39.2895 374.205 38.7881 374.6C38.2975 374.984 38.0148 375.549 37.9401 376.296H42.9321C42.9001 375.581 42.6548 375.021 42.1961 374.616C41.7375 374.211 41.1721 374.008 40.5001 374.008Z" fill="#221517"/>
<path d="M341.332 13V4.166H338.406V3.2H345.434V4.166H342.508V13H341.332ZM347.514 4.516C347.281 4.516 347.085 4.44133 346.926 4.292C346.777 4.13333 346.702 3.93733 346.702 3.704C346.702 3.48 346.777 3.29333 346.926 3.144C347.085 2.99467 347.281 2.92 347.514 2.92C347.738 2.92 347.929 2.99467 348.088 3.144C348.247 3.29333 348.326 3.48 348.326 3.704C348.326 3.93733 348.247 4.13333 348.088 4.292C347.929 4.44133 347.738 4.516 347.514 4.516ZM346.926 13V6.056H348.102V13H346.926ZM350.15 13V2.92H351.326V7.246C351.559 6.81667 351.89 6.48533 352.32 6.252C352.749 6.00933 353.216 5.888 353.72 5.888C354.522 5.888 355.166 6.14 355.652 6.644C356.137 7.13867 356.38 7.904 356.38 8.94V13H355.218V9.066C355.218 7.61933 354.634 6.896 353.468 6.896C352.861 6.896 352.352 7.11533 351.942 7.554C351.531 7.98333 351.326 8.59933 351.326 9.402V13H350.15ZM360.905 13C360.271 13 359.771 12.846 359.407 12.538C359.043 12.23 358.861 11.6747 358.861 10.872V7.05H357.657V6.056H358.861L359.015 4.39H360.037V6.056H362.081V7.05H360.037V10.872C360.037 11.3107 360.126 11.6093 360.303 11.768C360.481 11.9173 360.793 11.992 361.241 11.992H361.969V13H360.905ZM364.289 4.516C364.056 4.516 363.86 4.44133 363.701 4.292C363.552 4.13333 363.477 3.93733 363.477 3.704C363.477 3.48 363.552 3.29333 363.701 3.144C363.86 2.99467 364.056 2.92 364.289 2.92C364.513 2.92 364.705 2.99467 364.863 3.144C365.022 3.29333 365.101 3.48 365.101 3.704C365.101 3.93733 365.022 4.13333 364.863 4.292C364.705 4.44133 364.513 4.516 364.289 4.516ZM363.701 13V6.056H364.877V13H363.701Z" fill="#221517"/>
<path d="M200.042 13V3.2H201.414L204.942 10.032L208.442 3.2H209.828V13H208.652V5.3L205.376 11.6H204.494L201.218 5.314V13H200.042ZM214.989 13.168C214.336 13.168 213.748 13.0187 213.225 12.72C212.703 12.4213 212.287 12.0013 211.979 11.46C211.681 10.9093 211.531 10.2653 211.531 9.528C211.531 8.79067 211.685 8.15133 211.993 7.61C212.301 7.05933 212.717 6.63467 213.239 6.336C213.771 6.03733 214.364 5.888 215.017 5.888C215.671 5.888 216.259 6.03733 216.781 6.336C217.304 6.63467 217.715 7.05933 218.013 7.61C218.321 8.15133 218.475 8.79067 218.475 9.528C218.475 10.2653 218.321 10.9093 218.013 11.46C217.705 12.0013 217.285 12.4213 216.753 12.72C216.231 13.0187 215.643 13.168 214.989 13.168ZM214.989 12.16C215.391 12.16 215.764 12.062 216.109 11.866C216.455 11.67 216.735 11.376 216.949 10.984C217.164 10.592 217.271 10.1067 217.271 9.528C217.271 8.94933 217.164 8.464 216.949 8.072C216.744 7.68 216.469 7.386 216.123 7.19C215.778 6.994 215.409 6.896 215.017 6.896C214.616 6.896 214.243 6.994 213.897 7.19C213.552 7.386 213.272 7.68 213.057 8.072C212.843 8.464 212.735 8.94933 212.735 9.528C212.735 10.1067 212.843 10.592 213.057 10.984C213.272 11.376 213.547 11.67 213.883 11.866C214.229 12.062 214.597 12.16 214.989 12.16ZM215.787 5.272C215.535 5.272 215.325 5.216 215.157 5.104C214.999 4.992 214.845 4.88467 214.695 4.782C214.546 4.67 214.378 4.614 214.191 4.614C213.846 4.614 213.645 4.824 213.589 5.244H212.903C212.969 4.768 213.118 4.41333 213.351 4.18C213.594 3.94667 213.888 3.83 214.233 3.83C214.485 3.83 214.691 3.886 214.849 3.998C215.017 4.11 215.176 4.222 215.325 4.334C215.475 4.43667 215.647 4.488 215.843 4.488C216.002 4.488 216.137 4.43667 216.249 4.334C216.361 4.23133 216.431 4.07267 216.459 3.858H217.131C217.085 4.31533 216.935 4.66533 216.683 4.908C216.441 5.15067 216.142 5.272 215.787 5.272ZM220.111 13V6.056H221.175L221.245 7.302C221.469 6.86333 221.791 6.518 222.211 6.266C222.631 6.014 223.107 5.888 223.639 5.888C224.46 5.888 225.113 6.14 225.599 6.644C226.093 7.13867 226.341 7.904 226.341 8.94V13H225.165V9.066C225.165 7.61933 224.567 6.896 223.373 6.896C222.775 6.896 222.276 7.11533 221.875 7.554C221.483 7.98333 221.287 8.59933 221.287 9.402V13H220.111ZM231.244 13.168C230.582 13.168 229.994 13.0187 229.48 12.72C228.967 12.412 228.561 11.9873 228.262 11.446C227.973 10.9047 227.828 10.2653 227.828 9.528C227.828 8.8 227.973 8.16533 228.262 7.624C228.552 7.07333 228.953 6.64867 229.466 6.35C229.989 6.042 230.591 5.888 231.272 5.888C231.944 5.888 232.523 6.042 233.008 6.35C233.503 6.64867 233.881 7.04533 234.142 7.54C234.404 8.03467 234.534 8.56667 234.534 9.136C234.534 9.23867 234.53 9.34133 234.52 9.444C234.52 9.54667 234.52 9.66333 234.52 9.794H228.99C229.018 10.326 229.14 10.7693 229.354 11.124C229.578 11.4693 229.854 11.7307 230.18 11.908C230.516 12.0853 230.871 12.174 231.244 12.174C231.73 12.174 232.136 12.062 232.462 11.838C232.789 11.614 233.027 11.3107 233.176 10.928H234.338C234.152 11.572 233.792 12.1087 233.26 12.538C232.738 12.958 232.066 13.168 231.244 13.168ZM231.244 6.882C230.684 6.882 230.185 7.05467 229.746 7.4C229.317 7.736 229.07 8.23067 229.004 8.884H233.372C233.344 8.25867 233.13 7.76867 232.728 7.414C232.327 7.05933 231.832 6.882 231.244 6.882ZM239.243 13.168C238.552 13.168 237.946 13.0093 237.423 12.692C236.91 12.3747 236.508 11.9407 236.219 11.39C235.939 10.8393 235.799 10.214 235.799 9.514C235.799 8.814 235.944 8.19333 236.233 7.652C236.522 7.10133 236.924 6.672 237.437 6.364C237.95 6.04667 238.557 5.888 239.257 5.888C239.826 5.888 240.33 6.00467 240.769 6.238C241.208 6.47133 241.548 6.798 241.791 7.218V2.92H242.967V13H241.903L241.791 11.852C241.567 12.188 241.245 12.4913 240.825 12.762C240.405 13.0327 239.878 13.168 239.243 13.168ZM239.369 12.146C239.836 12.146 240.246 12.0387 240.601 11.824C240.965 11.6 241.245 11.292 241.441 10.9C241.646 10.508 241.749 10.0507 241.749 9.528C241.749 9.00533 241.646 8.548 241.441 8.156C241.245 7.764 240.965 7.46067 240.601 7.246C240.246 7.022 239.836 6.91 239.369 6.91C238.912 6.91 238.501 7.022 238.137 7.246C237.782 7.46067 237.502 7.764 237.297 8.156C237.101 8.548 237.003 9.00533 237.003 9.528C237.003 10.0507 237.101 10.508 237.297 10.9C237.502 11.292 237.782 11.6 238.137 11.824C238.501 12.0387 238.912 12.146 239.369 12.146ZM248.589 13V2.92H249.765V8.982L252.607 6.056H254.049L250.969 9.192L254.441 13H252.943L249.765 9.402V13H248.589ZM258.302 13.168C257.649 13.168 257.061 13.0187 256.538 12.72C256.015 12.4213 255.6 12.0013 255.292 11.46C254.993 10.9093 254.844 10.2653 254.844 9.528C254.844 8.79067 254.998 8.15133 255.306 7.61C255.614 7.05933 256.029 6.63467 256.552 6.336C257.084 6.03733 257.677 5.888 258.33 5.888C258.983 5.888 259.571 6.03733 260.094 6.336C260.617 6.63467 261.027 7.05933 261.326 7.61C261.634 8.15133 261.788 8.79067 261.788 9.528C261.788 10.2653 261.634 10.9093 261.326 11.46C261.018 12.0013 260.598 12.4213 260.066 12.72C259.543 13.0187 258.955 13.168 258.302 13.168ZM258.302 12.16C258.703 12.16 259.077 12.062 259.422 11.866C259.767 11.67 260.047 11.376 260.262 10.984C260.477 10.592 260.584 10.1067 260.584 9.528C260.584 8.94933 260.477 8.464 260.262 8.072C260.057 7.68 259.781 7.386 259.436 7.19C259.091 6.994 258.722 6.896 258.33 6.896C257.929 6.896 257.555 6.994 257.21 7.19C256.865 7.386 256.585 7.68 256.37 8.072C256.155 8.464 256.048 8.94933 256.048 9.528C256.048 10.1067 256.155 10.592 256.37 10.984C256.585 11.376 256.86 11.67 257.196 11.866C257.541 12.062 257.91 12.16 258.302 12.16ZM263.423 13V6.056H264.487L264.585 7.386C264.8 6.92867 265.126 6.56467 265.565 6.294C266.004 6.02333 266.545 5.888 267.189 5.888V7.12H266.867C266.456 7.12 266.078 7.19467 265.733 7.344C265.388 7.484 265.112 7.72667 264.907 8.072C264.702 8.41733 264.599 8.89333 264.599 9.5V13H263.423ZM268.509 13V6.056H269.573L269.671 7.386C269.886 6.92867 270.212 6.56467 270.651 6.294C271.09 6.02333 271.631 5.888 272.275 5.888V7.12H271.953C271.542 7.12 271.164 7.19467 270.819 7.344C270.474 7.484 270.198 7.72667 269.993 8.072C269.788 8.41733 269.685 8.89333 269.685 9.5V13H268.509ZM275.905 13.168C275.326 13.168 274.846 13.07 274.463 12.874C274.08 12.678 273.796 12.4167 273.609 12.09C273.422 11.7633 273.329 11.4087 273.329 11.026C273.329 10.3167 273.6 9.77067 274.141 9.388C274.682 9.00533 275.42 8.814 276.353 8.814H278.229V8.73C278.229 8.12333 278.07 7.666 277.753 7.358C277.436 7.04067 277.011 6.882 276.479 6.882C276.022 6.882 275.625 6.99867 275.289 7.232C274.962 7.456 274.757 7.78733 274.673 8.226H273.469C273.516 7.722 273.684 7.29733 273.973 6.952C274.272 6.60667 274.64 6.34533 275.079 6.168C275.518 5.98133 275.984 5.888 276.479 5.888C277.45 5.888 278.178 6.14933 278.663 6.672C279.158 7.18533 279.405 7.87133 279.405 8.73V13H278.355L278.285 11.754C278.089 12.146 277.8 12.482 277.417 12.762C277.044 13.0327 276.54 13.168 275.905 13.168ZM276.087 12.174C276.535 12.174 276.918 12.0573 277.235 11.824C277.562 11.5907 277.809 11.2873 277.977 10.914C278.145 10.5407 278.229 10.1487 278.229 9.738V9.724H276.451C275.76 9.724 275.27 9.84533 274.981 10.088C274.701 10.3213 274.561 10.6153 274.561 10.97C274.561 11.334 274.692 11.628 274.953 11.852C275.224 12.0667 275.602 12.174 276.087 12.174ZM284.319 13.168C283.628 13.168 283.022 13.0093 282.499 12.692C281.986 12.3747 281.584 11.9407 281.295 11.39C281.015 10.8393 280.875 10.214 280.875 9.514C280.875 8.814 281.02 8.19333 281.309 7.652C281.598 7.10133 282 6.672 282.513 6.364C283.026 6.04667 283.633 5.888 284.333 5.888C284.902 5.888 285.406 6.00467 285.845 6.238C286.284 6.47133 286.624 6.798 286.867 7.218V2.92H288.043V13H286.979L286.867 11.852C286.643 12.188 286.321 12.4913 285.901 12.762C285.481 13.0327 284.954 13.168 284.319 13.168ZM284.445 12.146C284.912 12.146 285.322 12.0387 285.677 11.824C286.041 11.6 286.321 11.292 286.517 10.9C286.722 10.508 286.825 10.0507 286.825 9.528C286.825 9.00533 286.722 8.548 286.517 8.156C286.321 7.764 286.041 7.46067 285.677 7.246C285.322 7.022 284.912 6.91 284.445 6.91C283.988 6.91 283.577 7.022 283.213 7.246C282.858 7.46067 282.578 7.764 282.373 8.156C282.177 8.548 282.079 9.00533 282.079 9.528C282.079 10.0507 282.177 10.508 282.373 10.9C282.578 11.292 282.858 11.6 283.213 11.824C283.577 12.0387 283.988 12.146 284.445 12.146Z" fill="#221517"/>
<path d="M118.036 13V3.2H119.212V7.526H124.294V3.2H125.47V13H124.294V8.492H119.212V13H118.036ZM129.778 13.168C129.199 13.168 128.719 13.07 128.336 12.874C127.953 12.678 127.669 12.4167 127.482 12.09C127.295 11.7633 127.202 11.4087 127.202 11.026C127.202 10.3167 127.473 9.77067 128.014 9.388C128.555 9.00533 129.293 8.814 130.226 8.814H132.102V8.73C132.102 8.12333 131.943 7.666 131.626 7.358C131.309 7.04067 130.884 6.882 130.352 6.882C129.895 6.882 129.498 6.99867 129.162 7.232C128.835 7.456 128.63 7.78733 128.546 8.226H127.342C127.389 7.722 127.557 7.29733 127.846 6.952C128.145 6.60667 128.513 6.34533 128.952 6.168C129.391 5.98133 129.857 5.888 130.352 5.888C131.323 5.888 132.051 6.14933 132.536 6.672C133.031 7.18533 133.278 7.87133 133.278 8.73V13H132.228L132.158 11.754C131.962 12.146 131.673 12.482 131.29 12.762C130.917 13.0327 130.413 13.168 129.778 13.168ZM129.96 12.174C130.408 12.174 130.791 12.0573 131.108 11.824C131.435 11.5907 131.682 11.2873 131.85 10.914C132.018 10.5407 132.102 10.1487 132.102 9.738V9.724H130.324C129.633 9.724 129.143 9.84533 128.854 10.088C128.574 10.3213 128.434 10.6153 128.434 10.97C128.434 11.334 128.565 11.628 128.826 11.852C129.097 12.0667 129.475 12.174 129.96 12.174ZM135.042 13V6.056H136.106L136.204 7.386C136.419 6.92867 136.746 6.56467 137.184 6.294C137.623 6.02333 138.164 5.888 138.808 5.888V7.12H138.486C138.076 7.12 137.698 7.19467 137.352 7.344C137.007 7.484 136.732 7.72667 136.526 8.072C136.321 8.41733 136.218 8.89333 136.218 9.5V13H135.042ZM142.13 13L139.498 6.056H140.73L142.816 11.866L144.916 6.056H146.12L143.488 13H142.13ZM149.383 13.168C148.805 13.168 148.324 13.07 147.941 12.874C147.559 12.678 147.274 12.4167 147.087 12.09C146.901 11.7633 146.807 11.4087 146.807 11.026C146.807 10.3167 147.078 9.77067 147.619 9.388C148.161 9.00533 148.898 8.814 149.831 8.814H151.707V8.73C151.707 8.12333 151.549 7.666 151.231 7.358C150.914 7.04067 150.489 6.882 149.957 6.882C149.5 6.882 149.103 6.99867 148.767 7.232C148.441 7.456 148.235 7.78733 148.151 8.226H146.947C146.994 7.722 147.162 7.29733 147.451 6.952C147.75 6.60667 148.119 6.34533 148.557 6.168C148.996 5.98133 149.463 5.888 149.957 5.888C150.928 5.888 151.656 6.14933 152.141 6.672C152.636 7.18533 152.883 7.87133 152.883 8.73V13H151.833L151.763 11.754C151.567 12.146 151.278 12.482 150.895 12.762C150.522 13.0327 150.018 13.168 149.383 13.168ZM149.565 12.174C150.013 12.174 150.396 12.0573 150.713 11.824C151.04 11.5907 151.287 11.2873 151.455 10.914C151.623 10.5407 151.707 10.1487 151.707 9.738V9.724H149.929C149.239 9.724 148.749 9.84533 148.459 10.088C148.179 10.3213 148.039 10.6153 148.039 10.97C148.039 11.334 148.17 11.628 148.431 11.852C148.702 12.0667 149.08 12.174 149.565 12.174Z" fill="#221517"/>
<path d="M136 25L136 392" stroke="#96897C" stroke-linecap="round" stroke-linejoin="round"/>
<path d="M244 25L244 392" stroke="#96897C" stroke-linecap="round" stroke-linejoin="round"/>
<path d="M352 25L352 392" stroke="#96897C" stroke-linecap="round" stroke-linejoin="round"/>
<path d="M105 40H374.853" stroke="#61131D" stroke-width="7" stroke-linecap="round" stroke-linejoin="round"/>
<path d="M105 96H332.214" stroke="#61131D" stroke-width="7" stroke-linecap="round" stroke-linejoin="round"/>
<path d="M105 160H317.904" stroke="#61131D" stroke-width="7" stroke-linecap="round" stroke-linejoin="round"/>
<path d="M105 216H218.607" stroke="#61131D" stroke-width="7" stroke-linecap="round" stroke-linejoin="round"/>
<path d="M105 272H326.665" stroke="#61131D" stroke-width="7" stroke-linecap="round" stroke-linejoin="round"/>
<path d="M105 328H346.817" stroke="#61131D" stroke-width="7" stroke-linecap="round" stroke-linejoin="round"/>
<path d="M105 376H226.2" stroke="#61131D" stroke-width="7" stroke-linecap="round" stroke-linejoin="round"/>
</svg>
